<svg width="921" height="633" xmlns="http://www.w3.org/2000/svg">

 <g>
  <title>background</title>
  <rect fill="none" id="canvas_background" height="635" width="923" y="-1" x="-1"/>
 </g>
 <g>
  <title>Layer 1</title>
  <path id="svg_1" fill="#93c2db" d="m561.516,342.61l0,-84.882l-8.811,8.8117l0,76.0703l15.169,15.28l-15.169,15.281l8.811,0l15.281,-15.281l-15.281,-15.28z"/>
  <path id="svg_2" fill="#93c2db" d="m788.939,251.0356l-8.811,0l15.169,15.281l0,25.4314l0,15.28l0,55.882l-10.15,10.261l8.811,0l10.262,-10.261l0,-55.882l0,-15.28l0,-25.4314l-15.281,-15.281z"/>
  <path id="svg_3" fill="#93c2db" d="m408.711,210.3237l-8.142,0l15.281,15.2809l0,25.431l0,15.2809l0,30.4505l0,66.143l-10.262,10.261l8.254,0l10.15,-10.261l0,-137.3054l-15.281,-15.2809z"/>
  <path id="svg_4" fill="#93c2db" d="m268.177,342.609l0,-85.1041l-8.812,8.8116l0,76.2925l15.281,15.281l-15.281,15.281l8.812,0l15.28,-15.281l-15.28,-15.281z"/>
  <path id="svg_5" fill="#9c4668" d="m508.425,235.7549l-8.812,0l0,15.2809l8.812,0l0,-15.2809z"/>
  <path id="svg_6" fill="#93c2db" d="m499.613,352.76l8.812,-8.812l0,-72.6122l20.411,-20.3002l-8.812,0l-20.411,20.3002l0,81.4242z"/>
  <path id="svg_7" fill="#93c2db" d="m508.875,342.61l5.019,5.131l-15.28,15.169l-10.15,10.262l8.811,0l10.15,-10.262l15.28,-15.169l-5.019,-5.131l-8.811,0z"/>
  <path id="svg_8" fill="#FF8AE2" d="m644.5,342.609l0,-76.2925l0,-15.2809l0,-25.431l-15.28,-15.2809l-8.812,0l15.281,15.2809l0,25.431l0,15.2809l0,76.2925l15.169,15.281l-15.169,15.281l8.811,0l15.28,-15.281l-15.28,-15.281z"/>
  <path id="svg_9" fill="#FF8AE2" d="m659.78,251.0356l-8.923,0l20.412,20.3002l0,66.1432l-15.95,15.95l4.461,4.461l20.3,-20.411l0,-66.1432l-20.3,-20.3002z"/>
  <path id="svg_10" fill="#93c2db" d="m148.8327,244.7894l0,37.1427l8.8113,-8.8117l0,-28.331l0,-26.6579l-16.0612,-16.0617l-0.1115,0l-8.6998,0l16.0612,16.0617l0,26.6579z"/>
  <path id="svg_11" fill="#93c2db" d="m196.794,223.4854l0,21.304l0,80.1966l0,16.062l10.707,10.708l4.462,-4.462l-6.358,-6.246l0,-16.062l0,-80.1966l0,-21.304l0,-5.3539l-16.061,-16.0617l-8.812,0l16.062,16.0617l0,5.3539z"/>
  <path id="svg_12" fill="#93c2db" d="m175.3781,278.4741l-26.5456,26.5469l0,57.442l-10.7075,10.708l8.8114,0l10.7074,-10.708l0,-57.442l17.7343,-17.735l0,-8.8119z"/>
  <path id="svg_13" fill="#93c2db" d="m122.0641,223.5972l-16.0612,15.9501l8.9229,0l11.5998,-11.6001l-4.4615,-4.35z"/>
  <path id="svg_14" fill="#93c2db" d="m227.02,341.048l-8.811,0l5.354,5.354l-10.708,10.708l-5.354,5.353l-10.707,10.708l8.811,0l10.708,-10.708l5.354,-5.353l10.707,-10.708l-5.354,-5.354z"/>
  <path id="svg_15" fill="#93c2db" d="m576.797,251.0356l-8.923,0l20.411,20.3002l0,66.1432l-15.95,15.95l4.462,4.461l20.3,-20.411l0,-66.1432l-20.3,-20.3002z"/>
  <path id="svg_16" fill="#93c2db" d="m750.125,271.2243l-35.469,35.4697l0,35.916l10.15,10.15l4.461,-4.35l-5.799,-5.8l0,-35.916l35.468,-35.4697l-20.188,-20.1887l-8.811,0l20.188,20.1887z"/>
  <path id="svg_17" fill="#93c2db" d="m739.086,337.479l5.131,5.13l-15.28,15.281l-5.131,5.02l-10.15,10.261l8.812,0l10.149,-10.261l5.131,-5.02l15.281,-15.281l-5.131,-5.13l-8.812,0z"/>
  <path id="svg_18" fill="#93c2db" d="m714.656,296.544l8.812,-8.812l0,-12.604l-8.812,-8.8116l0,30.2276z"/>
  <path id="svg_19" fill="#93c2db" d="m303.756,347.74l0,-76.4042l-20.299,-20.3002l-8.811,0l20.299,20.3002l0,76.4042l10.15,10.15l-15.169,15.281l8.811,0l15.169,-15.281l-10.15,-10.15z"/>
  <path id="svg_20" fill="#93c2db" d="m356.29,352.759l4.35,-4.35l-5.688,-5.8l0,-67.7041l-8.7,-8.5885l-0.111,0l0,76.2926l10.149,10.15z"/>
  <path id="svg_21" fill="#93c2db" d="m380.382,337.479l-8.811,0l5.019,5.13l-15.169,15.281l-5.131,5.02l-10.149,10.261l8.811,0l10.15,-10.261l5.13,-5.02l15.169,-15.281l-5.019,-5.13z"/>
  <path id="svg_22" fill="#93c2db" d="m361.421,281.3743l8.811,0l15.169,-15.2809l-15.169,-15.2809l-8.811,0l15.169,15.2809l-15.169,15.2809z"/>
  <path id="svg_23" fill="#93c2db" d="m439.942,251.0356l-8.922,0l15.28,15.281l-15.28,15.2809l8.922,0l15.169,-15.2809l-15.169,-15.281z"/>
  <path id="svg_24" fill="#93c2db" d="m819.389,251.0356l-8.812,0l15.281,15.281l-15.281,15.2809l8.812,0l15.28,-15.2809l-15.28,-15.281z"/>
  <path id="svg_25" fill="#93c2db" d="m439.942,281.5977l-8.922,0l15.28,15.1693l0,66.143l-10.15,10.262l8.812,0l10.149,-10.262l0,-66.143l-15.169,-15.1693z"/>
  <path id="svg_26" fill="#ffffff" d="m520.025,251.0353l-20.411,0l0,-15.2809l-35.58,35.5811l15.281,0l0,91.5735l10.149,10.262l10.15,-10.262l15.281,-15.169l-5.019,-5.131l-10.262,10.15l0,-81.4235l20.411,-20.3002z"/>
  <path id="svg_27" fill="#ffffff" d="m635.689,266.3165l0,-15.2809l0,-25.431l-15.281,-15.2809l-15.28,15.2809l10.15,10.1501l0,117.0053l20.411,20.411l15.169,-15.281l-15.169,-15.281l0,-76.2925z"/>
  <path id="svg_28" fill="#9C4668" d="m635.688,266.3166l15.169,15.2809l0,76.2925l20.411,-20.411l0,-66.1432l-20.411,-20.3002l-15.169,15.281z"/>
  <path id="svg_29" fill="#ffffff" d="m207.501,351.756l-10.707,-10.708l0,-16.062l0,-80.1966l0,-21.304l0,-5.3539l-16.061,-16.0617l-15.9501,16.0617l10.5959,10.5963l0,26.6579l-26.5456,26.5464l0,-37.1427l0,-26.6579l-16.0612,-16.0617l-0.1115,0l-32.1224,32.0118l5.4653,5.4655l16.0612,-15.9502l5.3537,5.3539l0,133.5132l10.7075,10.707l10.7074,-10.707l0,-57.443l26.5456,-26.5467l0,46.5117l0,26.77l21.4152,21.415l10.707,-10.707l5.354,-5.354l10.707,-10.708l-5.353,-5.354l-10.708,10.708z"/>
  <path id="svg_30" fill="#ffffff" d="m552.705,266.3164l-20.411,20.3006l0,66.142l20.411,20.412l15.169,-15.281l-15.169,-15.281l0,-76.2926z"/>
  <path id="svg_31" fill="#ffffff" d="m552.706,266.3166l15.169,15.2809l0,76.2925l20.411,-20.411l0,-66.1432l-20.411,-20.3002l-15.169,15.281z"/>
  <path id="svg_32" fill="#ffffff" d="m750.125,271.2243l-20.188,-20.1887l-15.281,15.281l15.169,15.0578l-15.169,15.1696l0,-30.2274l-20.411,20.3004l0,66.143l20.411,20.411l10.15,-10.261l5.131,-5.02l15.28,-15.28l-5.131,-5.131l-15.28,15.281l-10.15,-10.15l0,-35.916l35.469,-35.4697z"/>
  <path id="svg_33" fill="#ffffff" d="m259.365,266.3164l-20.411,20.3006l0,66.142l20.411,20.412l15.281,-15.281l-15.281,-15.281l0,-76.2926z"/>
  <path id="svg_34" fill="#ffffff" d="m294.945,271.3358l-20.299,-20.3002l-15.281,15.281l15.281,15.2809l0,76.2925l15.28,15.281l15.169,-15.281l-10.15,-10.15l0,-76.4042z"/>
  <path id="svg_35" fill="#ffffff" d="m356.29,352.76l-10.149,-10.15l0,-76.2931l-20.412,20.3001l0,66.143l20.412,20.412l10.149,-10.262l5.131,-5.019l15.169,-15.281l-5.019,-5.131l-15.281,15.281z"/>
  <path id="svg_36" fill="#ffffff" d="m361.452,250.8463l-15.301,15.3007l15.301,15.3007l15.3,-15.3007l-15.3,-15.3007z"/>
  <path id="svg_37" fill="#ffffff" d="m431.137,250.961l-15.3,15.3007l15.3,15.3007l15.3,-15.3007l-15.3,-15.3007z"/>
  <path id="svg_38" fill="#ffffff" d="m426,307.029l0,55.881l10.15,10.262l10.15,-10.262l0,-66.143l-15.28,-15.1693l-15.169,15.1693l10.149,10.262z"/>
  <path id="svg_39" fill="#ffffff" d="m415.851,251.0356l0,-25.431l-15.281,-15.2809l-15.28,15.2809l10.15,10.1501l0,127.1553l10.15,10.261l10.261,-10.261l0,-66.143l0,-30.4505l0,-15.2809z"/>
  <path id="svg_40" fill="#ffffff" d="m810.689,250.9547l-15.3,15.3007l15.3,15.3007l15.3,-15.3007l-15.3,-15.3007z"/>
  <path id="svg_41" fill="#ffffff" d="m764.847,266.3166l10.149,10.15l0,15.2814l0,15.28l0,55.882l10.15,10.261l10.15,-10.261l0,-55.882l0,-15.28l0,-25.4314l-15.169,-15.281l-15.28,15.281z"/>
  <path id="svg_42" fill="#ffffff" d="m544.341,211.7739l0,-6.0231l2.342,0c2.119,0 3.792,1.6731 3.792,3.7924l0,16.3963c-2.342,0.7807 -4.015,3.0115 -4.015,5.6885c0,1.6731 0.669,3.1231 1.673,4.2385c1.115,1.1154 2.565,1.7846 4.35,1.7846c3.346,0 6.023,-2.677 6.023,-6.0231c0,-2.4539 -1.562,-4.5732 -3.681,-5.577l0,-16.5078c0,-2.2308 -0.892,-4.2385 -2.454,-5.8001c-1.561,-1.5615 -3.569,-2.4539 -5.8,-2.4539l-2.342,0l0,-6.0231l-8.142,8.1424l8.254,8.3654zm8.253,17.1771c0.781,0 1.45,0.3346 2.008,0.7808c0.446,0.4462 0.781,1.2269 0.781,1.8962c0,0.7807 -0.335,1.45 -0.781,1.8961c-0.558,0.5577 -1.227,0.7808 -1.896,0.7808c-1.562,0 -2.789,-1.2269 -2.789,-2.7885c-0.111,-1.3384 1.116,-2.5654 2.677,-2.5654z"/>
  <path id="svg_43" fill="#ffffff" d="m534.86,231.7395c0,-2.4539 -1.562,-4.5732 -3.681,-5.577l0,-16.954c2.119,-0.8923 3.681,-3.0116 3.681,-5.577c0,-3.3462 -2.677,-6.0231 -6.023,-6.0231c-3.346,0 -6.023,2.6769 -6.023,6.0231c0,1.5616 0.557,3.1231 1.673,4.2385c0.669,0.6693 1.45,1.1154 2.23,1.45l0,16.731c-2.342,0.7807 -4.015,3.0115 -4.015,5.6885c0,1.6731 0.669,3.1231 1.673,4.2385c1.116,1.1154 2.566,1.7846 4.35,1.7846c3.458,0 6.135,-2.7885 6.135,-6.0231zm-6.023,-25.3195c-0.781,0 -1.45,-0.3346 -1.896,-0.7808c-0.558,-0.5577 -0.781,-1.2269 -0.781,-1.8961c0,-1.5616 1.227,-2.7885 2.788,-2.7885c0.781,0 1.45,0.3346 2.008,0.7808c0.446,0.4461 0.781,1.2269 0.781,1.8961c-0.112,1.5616 -1.339,2.7885 -2.9,2.7885zm0,27.9964c-1.562,0 -2.789,-1.2269 -2.789,-2.7885c0,-0.7808 0.335,-1.45 0.781,-1.8961c0.558,-0.5577 1.227,-0.7808 1.896,-0.7808c0.781,0 1.45,0.3346 2.008,0.7808c0.446,0.4461 0.781,1.2269 0.781,1.8961c0.111,1.5616 -1.116,2.7885 -2.677,2.7885z"/>
  <path id="svg_44" fill="#9C4668" d="m692.014,259.5126c2.453,-2.2307 2.677,-6.0231 0.446,-8.477c-0.669,-0.6692 -1.339,-1.2269 -2.119,-1.5615l0,-11.4886c4.238,5.4655 9.257,7.8078 13.049,8.9232c0.223,1.0038 0.67,1.8962 1.339,2.6769c1.115,1.227 2.565,1.8962 4.127,2.0077c1.561,0.1116 3.123,-0.4461 4.349,-1.5615c2.454,-2.2308 2.677,-6.0231 0.447,-8.477c-1.116,-1.2269 -2.566,-1.8962 -4.127,-2.0077c-1.45,-0.1116 -2.789,0.3346 -4.016,1.2269c-0.111,0.1116 -0.223,0.2231 -0.334,0.3346c-0.446,0.4462 -0.892,0.8924 -1.115,1.45c-3.347,-1.1153 -7.808,-3.5692 -11.377,-9.0346c2.008,-2.2308 2.119,-5.6886 0,-8.0309c-2.119,-2.3423 -5.688,-2.6769 -8.142,-0.7808c-0.112,0.1116 -0.223,0.2231 -0.335,0.3347c-2.454,2.2307 -2.677,6.0231 -0.446,8.477c0.669,0.7807 1.45,1.2269 2.342,1.5615l0,14.277c-0.557,0.2231 -1.115,0.4462 -1.561,0.8924c-0.112,0.1115 -0.223,0.223 -0.335,0.3346c-1.227,1.1154 -1.896,2.5654 -2.007,4.1269c-0.112,1.5616 0.446,3.1232 1.561,4.3501c2.008,2.3423 5.8,2.5654 8.254,0.4461zm15.392,-16.0616c0.557,-0.4462 1.226,-0.7808 2.007,-0.6693c0.781,0 1.45,0.3346 1.896,0.8923c1.004,1.1154 0.893,2.9001 -0.223,3.9039c0,0 -0.111,0.1116 -0.223,0.1116c-0.557,0.4461 -1.115,0.5577 -1.784,0.5577c-0.781,0 -1.45,-0.3347 -1.896,-0.8924c-0.447,-0.5576 -0.781,-1.2269 -0.67,-2.0077c0,-0.6692 0.335,-1.3384 0.893,-1.8961zm-21.081,-15.9502c1.116,-1.0038 2.9,-0.8923 3.904,0.2231c1.004,1.1154 0.892,2.9 -0.223,3.9039l-0.112,0.1115c-1.115,0.8923 -2.788,0.6693 -3.68,-0.3346c-1.116,-1.2269 -1.004,-2.9 0.111,-3.9039zm-1.003,27.3272c0,-0.7808 0.334,-1.45 0.892,-1.8962c1.115,-1.0038 2.9,-0.8923 3.904,0.2231c1.003,1.1154 0.892,2.9 -0.224,3.9039l-0.111,0.1115c-1.115,0.8923 -2.788,0.6693 -3.681,-0.3346c-0.557,-0.5577 -0.892,-1.3385 -0.78,-2.0077z"/>
  <path id="svg_45" fill="#ffffff" d="m256.354,197.72c0,-0.4461 0.112,-1.0038 0.335,-1.45l-8.031,0l0,3.4577l8.031,0c-0.335,-0.5577 -0.446,-1.3384 -0.335,-2.0077z"/>
  <path id="svg_46" fill="#ffffff" d="m267.507,198.3891c0,0.4461 -0.111,1.0038 -0.334,1.45l8.03,0l0,-3.4578l-7.919,0c0.112,0.5577 0.223,1.227 0.223,2.0078z"/>
  <path id="svg_47" fill="#ffffff" d="m269.181,198.0545c0,0.1115 0,0.3346 0,0.4461c-0.111,2.0077 -1.004,3.7924 -2.454,5.0193c-1.45,1.3385 -3.346,1.8962 -5.242,1.7846c-4.015,-0.223 -7.138,-3.6808 -6.915,-7.6962c0.111,-2.0077 1.004,-3.7923 2.454,-5.0193c1.45,-1.33844 3.346,-1.89613 5.242,-1.78459c4.015,0.11154 6.915,3.34619 6.915,7.25009zm-11.154,0c0,2.0077 1.562,3.6808 3.681,3.9039c1.004,0.1115 2.008,-0.3347 2.789,-1.0039c0.78,-0.6692 1.226,-1.6731 1.338,-2.677c0.112,-2.1192 -1.45,-3.9038 -3.569,-4.1269l0.111,-1.6731l-0.111,1.6731c-1.004,-0.1115 -2.008,0.3346 -2.789,1.0038c-0.78,0.6693 -1.226,1.6731 -1.338,2.677c-0.112,0 -0.112,0.1115 -0.112,0.2231z"/>
  <path id="svg_48" fill="#ffffff" d="m754.586,381.091c0,-0.447 0.111,-1.004 0.334,-1.45l-8.03,0l0,3.457l8.03,0c-0.223,-0.557 -0.334,-1.338 -0.334,-2.007z"/>
  <path id="svg_49" fill="#ffffff" d="m765.739,381.76c0,0.446 -0.112,1.004 -0.335,1.45l8.031,0l0,-3.458l-7.919,0c0.223,0.558 0.334,1.227 0.223,2.008z"/>
  <path id="svg_50" fill="#ffffff" d="m766.524,381.426c0,0.111 0,0.334 0,0.446c-0.112,2.007 -1.004,3.792 -2.454,5.019c-1.45,1.227 -3.346,1.896 -5.242,1.785c-4.015,-0.223 -7.138,-3.681 -6.915,-7.697c0.111,-2.007 1.003,-3.792 2.453,-5.019c1.45,-1.338 3.347,-1.896 5.243,-1.785c3.903,0.224 6.915,3.347 6.915,7.251zm-11.154,0c0,2.007 1.562,3.68 3.681,3.903c1.004,0.112 2.008,-0.334 2.788,-1.003c0.781,-0.67 1.227,-1.674 1.339,-2.677c0.111,-2.12 -1.45,-3.904 -3.569,-4.127l0.111,-1.673l-0.111,1.673c-1.004,-0.112 -2.008,0.334 -2.789,1.004c-0.781,0.669 -1.227,1.673 -1.338,2.676c-0.112,0.112 -0.112,0.112 -0.112,0.224z"/>
  <path id="svg_51" fill="#ffffff" d="m169.9138,392.691c0,-0.446 0.1115,-1.004 0.3346,-1.45l-8.0306,0l0,3.458l8.0306,0c-0.3346,-0.558 -0.4462,-1.339 -0.3346,-2.008z"/>
  <path id="svg_52" fill="#ffffff" d="m181.067,393.36c0,0.446 -0.112,1.004 -0.335,1.45l8.031,0l0,-3.457l-7.919,0c0.111,0.557 0.223,1.226 0.223,2.007z"/>
  <path id="svg_53" fill="#ffffff" d="m182.741,393.026c0,0.111 0,0.334 0,0.446c-0.112,2.008 -1.004,3.792 -2.454,5.019c-1.45,1.339 -3.346,1.896 -5.2424,1.785c-4.0153,-0.223 -7.1383,-3.681 -6.9152,-7.696c0.1115,-2.008 1.0038,-3.793 2.4538,-5.02c1.45,-1.227 3.3461,-1.896 5.2422,-1.784c3.9036,0.111 6.9156,3.346 6.9156,7.25zm-11.154,0c0,2.008 1.5615,3.681 3.6807,3.904c1.0043,0.111 2.0073,-0.335 2.7883,-1.004c0.781,-0.669 1.227,-1.673 1.339,-2.677c0.111,-2.119 -1.45,-3.904 -3.5696,-4.127l0.1115,-1.785l-0.1115,1.785c-1.0038,-0.112 -2.0077,0.335 -2.7884,1.004c-0.7808,0.669 -1.2269,1.673 -1.3384,2.677c-0.1116,0.111 -0.1116,0.111 -0.1116,0.223z"/>
  <path id="svg_54" fill="#ffffff" d="m455.222,231.9627c0,-0.4461 0.112,-1.0038 0.335,-1.45l-8.031,0l0,3.4577l8.031,0c-0.223,-0.6692 -0.335,-1.3385 -0.335,-2.0077z"/>
  <path id="svg_55" fill="#ffffff" d="m466.376,232.632c0,0.4461 -0.112,1.0038 -0.335,1.45l8.031,0l0,-3.5693l-7.919,0c0.223,0.6692 0.334,1.3385 0.223,2.1193z"/>
  <path id="svg_56" fill="#ffffff" d="m468.161,232.2971c0,0.1116 0,0.3347 0,0.4462c-0.112,2.0077 -1.004,3.7924 -2.454,5.0193c-1.45,1.3385 -3.346,1.8962 -5.242,1.7846c-4.016,-0.2231 -7.139,-3.6808 -6.916,-7.6962c0.112,-2.0077 1.004,-3.7924 2.454,-5.0193c1.45,-1.3385 3.346,-1.8962 5.242,-1.7846c3.904,0.1115 6.916,3.3462 6.916,7.25zm-11.154,0c0,2.0078 1.561,3.6809 3.681,3.9039c1.003,0.1116 2.007,-0.3346 2.788,-1.0038c0.781,-0.6693 1.227,-1.6731 1.338,-2.677c0.112,-2.1192 -1.45,-3.9039 -3.569,-4.1269l0.112,-1.6731l-0.112,1.6731c-1.004,-0.1116 -2.007,0.3346 -2.788,1.0038c-0.781,0.6693 -1.227,1.6731 -1.339,2.677c-0.111,0 -0.111,0.1115 -0.111,0.223z"/>
  <path id="svg_57" fill="#ffffff" d="m344.021,232.855c-1.785,-2.7885 -5.577,-3.5693 -8.365,-1.6731c-1.339,0.8923 -2.231,2.2308 -2.566,3.7923c-0.334,1.5616 0,3.2347 0.893,4.5731c0.557,0.8924 1.784,1.7847 2.788,2.0078l0,4.2385c0,1.2269 -1.004,4.0154 -4.015,4.0154l-10.931,0l0,-10.7078c0.781,-0.3346 1.562,-0.7808 2.119,-1.5616c2.231,-2.4538 2.008,-6.2462 -0.446,-8.477c-2.454,-2.2307 -6.246,-2.0077 -8.477,0.4462c-1.115,1.2269 -1.561,2.7885 -1.561,4.35c0,1.5616 0.781,3.1231 2.008,4.127c0.111,0.1115 0.223,0.2231 0.334,0.3346c0.446,0.3346 1.004,0.6693 1.562,0.8923l0,14.2771c-0.893,0.3346 -1.673,0.8923 -2.343,1.5615c-2.23,2.4539 -2.007,6.2462 0.447,8.477c0.111,0.1116 0.223,0.2231 0.334,0.3346c2.454,1.8962 6.023,1.5616 8.142,-0.7807c2.008,-2.3424 2.008,-5.9116 0,-8.0309c-0.334,-0.3346 -0.557,-0.5577 -0.78,-0.7807l9.48,0c5.8,0 8.365,-4.9078 8.365,-8.254l0,-4.1269c0.335,-0.1116 0.781,-0.3346 1.116,-0.5577c0.111,-0.1116 0.223,-0.2231 0.334,-0.3346c1.116,-0.8924 1.896,-2.1193 2.231,-3.5693c0.558,-1.6731 0.223,-3.2346 -0.669,-4.5731zm-27.215,0.7808c0,-0.7808 0.223,-1.4501 0.669,-2.0078c1.004,-1.1153 2.566,-1.2269 3.681,-0.3346c0.112,0 0.111,0.1116 0.111,0.1116c1.116,1.0038 1.227,2.7885 0.224,3.9039c-1.004,1.1153 -2.789,1.2269 -3.904,0.223c-0.446,-0.5577 -0.781,-1.2269 -0.781,-1.8961zm4.908,27.104c-1.004,1.1154 -2.677,1.227 -3.904,0.2231c-1.115,-1.0038 -1.227,-2.7885 -0.223,-3.9039c1.004,-1.1154 2.565,-1.2269 3.68,-0.3346c0.112,0 0.112,0.1116 0.112,0.1116c1.227,1.0038 1.338,2.7885 0.335,3.9038zm19.965,-23.9809c-0.112,0.6692 -0.558,1.3384 -1.227,1.7846c-0.558,0.4461 -1.339,0.5577 -2.119,0.4461c-0.67,-0.1115 -1.339,-0.5576 -1.785,-1.2269c-0.446,-0.5577 -0.558,-1.3385 -0.446,-2.1192c0.111,-0.6693 0.446,-1.227 1.004,-1.5616c0.111,0 0.111,-0.1115 0.223,-0.1115c1.227,-0.7808 3.011,-0.4462 3.792,0.7808c0.558,0.5577 0.669,1.2269 0.558,2.0077z"/>
  <path id="svg_58" fill="#9c4668" d="m139.0176,225.1587l-2.1192,0l0,127.7123l2.1192,0l0,-127.7123z"/>
  <path id="svg_59" fill="#9c4668" d="m187.647,225.1587l-2.119,0l0,118.9013l2.119,0l0,-118.9013z"/>
  <path id="svg_60" fill="#9c4668" d="m404.589,231.0703l-2.119,0l0,126.7087l2.119,0l0,-126.7087z"/>
  <path id="svg_61" fill="#9c4668" d="m625.762,232.52l-2.119,0l0,112.209l2.119,0l0,-112.209z"/>
  <path id="svg_62" fill="#9c4668" d="m285.688,276.9131l-2.12,0l0,72.9469l2.12,0l0,-72.9469z"/>
  <path id="svg_63" fill="#9c4668" d="m490.245,276.9131l-2.119,0l0,72.9469l2.119,0l0,-72.9469z"/>
  <path id="svg_64" fill="#9c4668" d="m785.48,273.3438l-2.119,0l0,79.9742l2.119,0l0,-79.9742z"/>
  <path id="svg_65" fill="#9c4668" d="m578.581,275.5742l-2.119,0l0,59.7848l2.119,0l0,-59.7848z"/>
  <path id="svg_66" fill="#FF8AE2" d="m660.783,276.9131l-2.119,0l0,59.7849l2.119,0l0,-59.7849z"/>
  <path id="svg_67" fill="#9c4668" d="m704.172,289.852l-2.119,0l0,59.785l2.119,0l0,-59.785z"/>
  <path id="svg_68" fill="#9c4668" d="m543.894,289.182l-2.12,0l0,59.785l2.12,0l0,-59.785z"/>
  <path id="svg_69" fill="#9c4668" d="m336.883,287.621l-2.119,0l0,61.012l2.119,0l0,-61.012z"/>
  <path id="svg_70" fill="#9c4668" d="m249.885,288.959l-2.119,0l0,59.116l2.119,0l0,-59.116z"/>
  <path id="svg_71" fill="#9c4668" d="m436.484,300.894l-2.119,0l0,59.116l2.119,0l0,-59.116z"/>
  <path id="svg_72" fill="#9c4668" d="m139.0178,303.906l-1.6731,-1.673l48.4063,-48.5201l1.673,1.7846l-48.4062,48.4085z"/>
  <path id="svg_73" fill="#FF8AE2" d="m769.197,339.152c1.116,3.346 3.569,5.8 5.8,7.027l0,-16.619c-5.354,5.577 -5.8,9.48 -5.8,9.592z"/>
  <path id="svg_74" fill="#FF8AE2" d="m469.723,346.625c-0.224,-0.334 -0.335,-0.781 -0.447,-1.115c0.112,0.446 0.223,0.781 0.447,1.115z"/>
  <path id="svg_75" fill="#FF8AE2" d="m479.203,326.102c-12.046,9.481 -9.481,20.523 -9.481,20.523c1.896,4.016 5.911,6.358 9.592,7.697l-0.111,-28.22z"/>
  <path id="svg_76" fill="#ffffff" d="m303.756,307.475l0,24.092c2.565,-2.342 5.354,-5.465 6.692,-8.923c0.335,-1.45 1.227,-8.365 -6.692,-15.169z"/>
  <path id="svg_77" fill="#ff8ae2" d="m230.366,406.968c0,0 7.807,3.57 5.911,23.87c-0.892,8.923 3.904,17.177 3.904,17.177c0,0 -14.388,-3.458 -16.396,-14.277c-1.562,-8.143 5.354,-16.285 6.581,-26.77z"/>
  <path id="svg_78" fill="#ff8ae2" d="m215.978,226.3856c0,0 16.73,-12.9385 8.922,-36.0272c0,0 -9.592,3.3462 -7.919,13.3847c1.785,11.154 1.896,18.0694 -1.003,22.6425z"/>
  <path id="svg_79" fill="#ff8ae2" d="m763.955,317.625c0,0 -7.473,-22.419 14.276,-39.1504c0,0 6.135,8.4774 -1.004,17.4004c-7.138,8.923 -13.161,15.727 -13.272,21.75z"/>
  <path id="svg_80" fill="#93C2DB" d="m465.819,315.84c0,0 -8.031,-20.969 7.361,-29.892c0,0 1.785,3.904 1.004,10.373c-0.892,6.804 -5.354,7.808 -8.365,19.519z"/>
  <path id="svg_81" fill="#ff8ae2" d="m345.694,228.7281c0,0 5.466,-14.3886 18.404,-10.4847c0,-0.1115 -3.458,13.1617 -18.404,10.4847z"/>
  <path id="svg_82" fill="#ff8ae2" d="m330.414,224.4894c0,0 -9.926,-10.5963 0.558,-21.1925c0.111,0 9.146,8.477 -0.558,21.1925z"/>
  <path id="svg_83" fill="#ff8ae2" d="m310.784,228.7276c0,0 -14.5,2.3424 -19.296,-8.7c-0.112,0 13.607,-4.7962 19.296,8.7z"/>
  <path id="svg_84" fill="#93C2DB" d="m540.437,398.379c0,0 5.465,-14.388 18.403,-10.484c0,0 -3.458,13.273 -18.403,10.484z"/>
  <path id="svg_85" fill="#93C2DB" d="m525.156,394.253c0,0 -9.926,-10.597 0.558,-21.193c0,0 9.146,8.477 -0.558,21.193z"/>
  <path id="svg_86" fill="#93C2DB" d="m505.526,398.491c0,0 -14.5,2.342 -19.296,-8.7c-0.111,-0.112 13.608,-4.908 19.296,8.7z"/>
  <path id="svg_87" fill="#93C2DB" d="m689.115,215.3432c0,0 -5.465,-11.6001 3.904,-20.8578c-0.112,0 7.584,9.8154 -3.904,20.8578z"/>
  <path id="svg_88" fill="#93C2DB" d="m680.972,217.0166c0,0 -12.826,-0.6693 -16.507,-13.3848c0,0 12.269,-2.0077 16.507,13.3848z"/>
  <path id="svg_89" fill="#93C2DB" d="m379.936,590.451c0,0 -12.38,6.469 -20.857,-3.904c0,0 11.711,-7.25 20.857,3.904z"/>
  <path id="svg_90" fill="#93C2DB" d="m385.736,598.593c0,0 -0.557,14.388 -13.384,16.508c0,-0.112 -1.004,-13.72 13.384,-16.508z"/>
  <path id="svg_91" fill="#93C2DB" d="m547.909,542.6c0,0 11.6,-5.466 20.857,3.904c0,-0.112 -9.815,7.584 -20.857,-3.904z"/>
  <path id="svg_92" fill="#93C2DB" d="m546.236,534.458c0,0 0.67,-12.827 13.385,-16.508c-0.112,0 2.007,12.269 -13.385,16.508z"/>
  <path id="svg_93" fill="#93C2DB" d="m813.031,380.533c0,0 12.826,3.904 12.046,17.512c0,-0.112 -14.5,-1.562 -12.046,-17.512z"/>
  <path id="svg_94" fill="#93C2DB" d="m815.373,373.618c0,0 8.254,-10.038 21.08,-2.231c0,0 -7.249,10.039 -21.08,2.231z"/>
  <path id="svg_95" fill="#ff8ae2" d="m96.188,243.1167c0,0 -6.3575,12.1578 -20.188,6.4693c0,0 5.5768,-13.3848 20.188,-6.4693z"/>
  <path id="svg_96" fill="#93C2DB" d="m100.3221,247.5781c0,0 9.9267,11.154 0,21.1925c-0.1116,0 -10.5959,-11.1539 0,-21.1925z"/>
  <path id="svg_97" fill="#ff8ae2" d="m520.471,198.6123c0,0 -12.492,-2.6769 -14.165,-15.72702c-0.111,0 12.381,-0.11155 14.165,15.72702z"/>
  <path id="svg_98" fill="#ff8ae2" d="m516.79,206.0853c0,0 -8.365,9.7039 -20.634,5.0193c0.112,0 5.912,-11.0424 20.634,-5.0193z"/>
  <path id="svg_99" fill="#ff8ae2" d="m728.264,333.24c0,0 2.342,-4.127 3.123,-8.254c1.45,-6.915 2.119,-13.831 10.484,-14.165c0.112,0 0.335,18.962 -13.607,22.419z"/>
  <path id="svg_100" fill="#93c2db" d="m678.741,427.715c0,0 8.031,-12.828 22.084,-14.278c17.288,-1.673 23.088,-11.711 26.323,-17.734c0,0 -23.757,-0.335 -33.015,4.796c-9.48,5.242 -12.157,11.154 -15.392,27.216z"/>
  <path id="svg_101" fill="#9c4668" d="m423.992,358.894c0.67,-7.584 0.67,-26.435 -1.227,-34.8c-2.453,-11.154 -4.684,-10.819 -6.134,-10.262c-1.45,0.558 -1.115,2.12 -1.896,3.012c-0.892,0.892 -2.231,2.008 -4.015,-1.562c-1.785,-3.68 -3.123,-14.165 -6.47,-17.846c-3.457,-3.792 -5.688,2.342 -7.249,3.792c-1.562,1.45 -1.785,2.454 -6.135,-0.446c-4.35,-2.9 -16.173,-8.923 -21.192,-5.019c-4.907,3.904 0.446,8.812 2.008,9.815c3.234,2.12 13.607,5.354 14.388,7.139c1.338,3.235 -5.688,3.569 -7.027,5.912c-1.338,2.342 0.446,4.796 3.681,5.577c3.234,0.78 11.934,-0.893 15.615,0c3.569,0.892 2.788,2.119 1.561,2.9c-0.669,0.446 -6.915,3.903 -5.911,6.915c1.115,3.569 4.685,4.685 13.384,3.904c6.581,-0.558 11.489,4.127 12.939,7.919c1.45,3.904 3.68,13.05 3.68,13.05z"/>
  <path id="svg_102" fill="#FF8AE2" d="m380.047,299.667c-0.669,-0.446 -1.338,-0.781 -1.561,-0.892l-1.227,0.781c0,0 0.223,0.223 2.007,1.227c28.331,16.954 40.042,34.911 44.95,47.85c0,-1.115 0,-2.231 0,-3.346c-5.466,-12.939 -17.623,-29.781 -44.169,-45.62z"/>
  <path id="svg_103" fill="#9c4668" d="m567.428,310.486c0,0 -1.896,-17.288 1.004,-31.1193c1.785,-8.3655 7.361,-19.4079 15.28,-28.3311c8.923,-9.927 12.046,-11.6001 14.054,-11.6001c0.892,0 0.335,1.3385 0,2.677c-0.892,3.2346 -1.673,5.6885 -2.677,10.1501c-1.896,9.0347 0,12.6039 -2.788,17.177c-1.562,2.677 -10.931,6.1347 -8.477,9.4809c1.45,1.8962 9.146,-5.8 11.265,-3.2346c2.119,2.4538 -2.008,13.9421 -7.584,17.4001c-15.95,9.704 -20.077,17.4 -20.077,17.4z"/>
  <path id="svg_104" fill="#93C2DB" d="m630,422.249l0,-8.811l-49.968,0l0,14.946l9.034,0l0,9.369l-9.034,0l-0.223,0l0,9.258l-9.035,0l27.438,0l0,-9.258l40.599,0l0,-15.504l-8.811,0z"/>
  <path id="svg_105" fill="#93c2db" d="m413.174,451.584l-9.257,0l0,-21.304l-13.942,0l0,75.289l9.034,0l0,-9.258l14.165,0l0,-8.7l0,-17.958l16.842,0l0,-7.027l13.273,0l0,-11.042l-30.115,0z"/>
  <path id="svg_106" fill="#93C2DB" d="m538.54,485.492l-9.258,0l0,9.258l9.258,0l0,-9.258z"/>
  <path id="svg_107" fill="#9c4668" d="m449.645,487.611l-9.257,0l0,9.258l9.257,0l0,-9.258z"/>
  <path id="svg_108" fill="#9c4668" d="m458.904,496.869l-9.258,0l0,9.257l9.258,0l0,-9.257z"/>
  <path id="svg_109" fill="#93C2DB" d="m520.025,513.377l0,-9.37l9.258,0l0,-9.257l-8.143,0l0,-20.189l-10.707,0l0,20.189l-25.988,0l0,8.588l-8.7,0l0,10.039l12.381,0l31.899,0z"/>
  <path id="svg_110" fill="#9c4668" d="m494.149,422.807l-9.257,0l0,9.257l9.257,0l0,-9.257z"/>
  <path id="svg_111" fill="#9c4668" d="m503.406,413.438l-9.258,0l0,9.257l9.258,0l0,-9.257z"/>
  <path id="svg_112" fill="#93C2DB" d="m372.463,423.364l-13.161,0l0,7.027l13.161,0l0,-7.027z"/>
  <path id="svg_113" fill="#93C2DB" d="m330.748,434.295l-9.257,0l0,-9.258l-9.258,0l0,9.258l9.258,0l0,17.4l0,17.958l41.38,0l0,-17.958l-32.123,0l0,-17.4zm9.369,25.989l0,9.257l-9.257,0l0,-9.257l9.257,0z"/>
  <path id="svg_114" fill="#93C2DB" d="m573.811,490.134l0,-7.807l-7.808,0l0,7.807l7.808,0z"/>
  <path id="svg_115" fill="#93C2DB" d="m308.33,398.379l-8.365,0l0,8.031l8.365,0l0,-8.031z"/>
  <path id="svg_116" fill="#93C2DB" d="m438.158,206.989l0,-8.1423l-8.142,0l0,8.1423l8.142,0z"/>
  <path id="svg_117" fill="#93C2DB" d="m590.725,217.4739l0,-8.1424l-8.143,0l0,8.1424l8.143,0z"/>
  <path id="svg_118" fill="#93C2DB" d="m846,330.416l0,-8.142l-8.142,0l0,8.142l8.142,0z"/>
  <path id="svg_119" fill="#93C2DB" d="m564.683,585.223l8.142,0l0,-8.143l-8.142,0l0,8.143z"/>
  <path id="svg_120" fill="#93C2DB" d="m428.184,614.913l8.142,0l0,-8.143l-8.142,0l0,8.143z"/>
  <path id="svg_121" fill="#93C2DB" d="m601.918,375.969l0,-7.808l-7.808,0l0,7.808l7.808,0z"/>
  <path id="svg_122" fill="#93C2DB" d="m681.199,388.676l0,-7.807l-7.807,0l0,7.807l7.807,0z"/>
  <path id="svg_123" fill="#93C2DB" d="m378.684,381.688l7.807,0l0,-7.808l-7.807,0l0,7.808z"/>
  <path id="svg_124" fill="#93C2DB" d="m366.276,516.25l0,-7.808l-7.807,0l0,7.808l7.807,0z"/>
  <path id="svg_125" fill="#ffffff" d="m598.211,437.753l0,9.258l-11.822,0l0,66.366l14.276,0l0,-8.7l8.7,0l0,-66.924l-11.154,0z"/>
  <path id="svg_126" fill="#ffffff" d="m503.406,413.438l0,9.369l-9.257,0l0,9.258l-9.258,0l-9.257,0l0,33.127l0,-9.146l9.369,0l0,4.461l11.6,0l0,-4.461l0,-18.293l30.895,0l0,-7.362l8.142,0l0,-16.953l-32.234,0z"/>
  <path id="svg_127" fill="#FF8AE2" d="m386.536,389.541l7.808,0l0,-7.808l-7.808,0l0,7.808z"/>
  <path id="svg_128" fill="#ffffff" d="m440.165,421.803l0,-8.366l-32.122,0l0,-7.027l-22.977,0l0,23.87l18.85,0l0,21.304l9.258,0l0,-15.281l9.48,0l0,-14.5l17.511,0z"/>
  <path id="svg_129" fill="#ffffff" d="m321.491,478.911l0,-9.258l0,-18.069l0,-17.289l-9.257,0l0,-9.257l9.257,0l0,-9.37l9.258,0l0,-2.231l0,-6.915l-22.419,0l0,9.481l0,1.004l0,91.239l22.419,0l0,-29.335l-9.258,0z"/>
  <path id="svg_130" fill="#9C4668" d="m308.33,508.246l-8.365,0l0,8.031l8.365,0l0,-8.031z"/>
  <path id="svg_131" fill="#9C4668" d="m638.588,413.438l-8.699,0l0,8.7l8.699,0l0,-8.7z"/>
  <path id="svg_132" fill="#9C4668" d="m647.288,421.249l-8.7,0l0,15.504l8.7,0l0,-15.504z"/>
  <path id="svg_133" fill="#9C4668" d="m647.288,404.737l-8.7,0l0,8.7l8.7,0l0,-8.7z"/>
  <path id="svg_134" fill="#9C4668" d="m529.283,504.007l-9.258,0l0,9.258l9.258,0l0,-9.258z"/>
  <path id="svg_135" fill="#ffffff" d="m413.174,505.569l-14.165,0l0,7.808l14.165,0l0,-7.808z"/>
  <path id="svg_136" fill="#FF8AE2" d="m84.14258,276.952l0,-8.1424l-8.14214,0l0,8.1424l8.14214,0z"/>
  <path id="svg_137" fill="#FF8AE2" d="m312.398,197.2801l0,-8.1424l-8.142,0l0,8.1424l8.142,0z"/>
  <path id="svg_138" fill="#FF8AE2" d="m833.839,236.5882l0,-8.1424l-8.142,0l0,8.1424l8.142,0z"/>
  <path id="svg_139" fill="#FF8AE2" d="m761.122,419.072l8.142,0l0,-8.143l-8.142,0l0,8.143z"/>
  <path id="svg_140" fill="#FF8AE2" d="m769.08,411.225l8.143,0l0,-8.143l-8.143,0l0,8.143z"/>
  <path id="svg_141" fill="#FF8AE2" d="m267.344,478.596l8.142,0l0,-8.142l-8.142,0l0,8.142z"/>
  <path id="svg_142" fill="#FF8AE2" d="m357.295,556.652l8.143,0l0,-8.142l-8.143,0l0,8.142z"/>
  <path id="svg_143" fill="#FF8AE2" d="m467.602,521.469l8.142,0l0,-8.142l-8.142,0l0,8.142z"/>
  <path id="svg_144" fill="#FF8AE2" d="m609.001,396.941l0,-7.808l-7.808,0l0,7.808l7.808,0z"/>
  <path id="svg_145" fill="#FF8AE2" d="m673.28,396.529l0,-7.807l-7.807,0l0,7.807l7.807,0z"/>
  <path id="svg_146" fill="#FF8AE2" d="m460.688,413.438l-20.523,0l0,8.365l-17.511,0l0,14.5l28.665,0l0,-9.592l9.369,0l0,-13.273z"/>
  <path id="svg_147" fill="#FF8AE2" d="m469.053,405.518l-8.365,0l0,8.031l8.365,0l0,-8.031z"/>
  <path id="svg_148" fill="#FF8AE2" d="m726.59,203.9663l-8.699,0l0,8.7001l8.699,0l0,-8.7001z"/>
  <path id="svg_149" fill="#FF8AE2" d="m618.065,513.376l-8.7,0l0,8.7l8.7,0l0,-8.7z"/>
  <path id="svg_150" fill="#FF8AE2" d="m609.366,504.676l-8.7,0l0,8.7l8.7,0l0,-8.7z"/>
  <path id="svg_151" fill="#FF8AE2" d="m538.54,485.492l0,-17.177l-6.134,0l0,-7.808l-47.403,0l0,-4.462l-9.369,0l0,9.258l9.257,0l0,9.258l25.542,0l4.908,0l5.8,0l0,20.189l8.142,0l0,-9.258l9.257,0z"/>
  <path id="svg_152" fill="#FF8AE2" d="m494.149,413.438l-9.257,0l0,9.257l9.257,0l0,-9.257z"/>
  <path id="svg_153" fill="#FF8AE2" d="m484.891,422.807l-9.257,0l0,9.257l9.257,0l0,-9.257z"/>
  <path id="svg_154" fill="#9c4668" d="m443.177,462.626l-13.161,0l0,7.027l13.161,0l0,-7.027z"/>
  <path id="svg_155" fill="#FF8AE2" d="m299.964,516.276l-8.699,0l0,8.7l8.699,0l0,-8.7z"/>
  <path id="svg_156" fill="#9c4668" d="m340.006,460.284l-9.258,0l0,9.257l9.258,0l0,-9.257z"/>
  <path id="svg_157" fill="#9c4668" d="m330.749,469.653l-9.258,0l0,9.258l9.258,0l0,-9.258z"/>
  <path id="svg_158" fill="#FF8AE2" d="m350.044,413.437l0,-7.027l-9.926,0l-9.369,0l0,9.258l-9.258,0l0,18.627l9.258,0l0,-3.904l28.553,0l0,-7.027l13.273,0l0,-9.927l-22.531,0z"/>
  <path id="svg_159" fill="#9c4668" d="m598.324,419.126l-9.258,0l0,9.258l9.258,0l0,-9.258z"/>
  <path id="svg_160" fill="#ff8ae2" d="m580.031,428.384l0,-14.946l-30.449,0l0,24.315l20.969,0l0,9.258l9.257,0l0,-9.258l0.223,0l9.035,0l0,-9.369l-9.035,0z"/>
  <path id="svg_161" fill="#ff8ae2" d="m449.646,506.126l0,-9.257l-9.257,0l0,-9.258l-27.215,0l0,8.7l-14.165,0l0,9.258l14.165,0l0,2.677l0,5.13l45.841,0l0,-7.25l-9.369,0z"/>
  <path id="svg_162" fill="#9C4668" d="m538.54,494.75l-9.258,0l0,9.257l9.258,0l0,-9.257z"/>
  <path id="svg_163" fill="#9C4668" d="m582.471,225.677l0,-8.1423l-8.142,0l0,8.1423l8.142,0z"/>
  <path id="svg_164" fill="#9C4668" d="m114.708,300.818l0,-8.143l-8.1421,0l0,8.143l8.1421,0z"/>
  <path id="svg_165" fill="#9c4668" d="m330.8,385.496l0,-8.142l-8.142,0l0,8.142l8.142,0z"/>
  <path id="svg_166" fill="#9C4668" d="m239.803,382.959l0,-8.143l-8.142,0l0,8.143l8.142,0z"/>
  <path id="svg_167" fill="#9C4668" d="m837.857,338.619l0,-8.142l-8.142,0l0,8.142l8.142,0z"/>
  <path id="svg_168" fill="#9C4668" d="m556.596,577.024l8.142,0l0,-8.142l-8.142,0l0,8.142z"/>
  <path id="svg_169" fill="#9C4668" d="m638.897,480.317l8.142,0l0,-8.143l-8.142,0l0,8.143z"/>
  <path id="svg_170" fill="#FF8AE2" d="m419.981,606.821l8.142,0l0,-8.143l-8.142,0l0,8.143z"/>
  <path id="svg_171" fill="#9C4668" d="m565.891,497.876l0,-7.808l-7.808,0l0,7.808l7.808,0z"/>
  <path id="svg_172" fill="#9C4668" d="m439.719,390.237l-8.699,0l0,8.7l8.699,0l0,-8.7z"/>
  <path id="svg_173" fill="#9C4668" d="m358.469,524.103l0,-7.808l-7.808,0l0,7.808l7.808,0z"/>
  <path id="svg_174" fill="#ffffff" d="m495.711,582.42l-5.354,-5.354l-8.923,8.923l-5.577,0l0,-20.189l4.796,-4.796l1.785,-1.784l1.896,-1.785l3.681,-3.681l0,-5.577l0,-9.146l-7.919,-7.808l-10.931,10.931l1.896,1.785l5.465,-5.466l4.127,4.239l0,14.611l-11.153,11.154l-0.893,0.893l0,18.292l7.25,0l13.05,0l1.45,0l5.354,-5.242z"/>
  <path id="svg_175" fill="#9c4668" d="m488.014,548.177l0,5.577l-3.681,3.681l-1.896,1.785l-1.784,1.784l-4.797,4.796l0,20.189l3.012,0l0,-20.189l4.796,-4.796l1.673,-1.784l1.896,-1.785l3.681,-3.681l0,-5.577l0,-9.146l-7.919,-7.808l-2.9,0l7.919,7.808l0,9.146z"/>
  <path id="svg_176" fill="#FF8AE2" d="m493.368,577.066l-3.012,0l5.354,5.354l-5.354,5.242l3.012,0l5.242,-5.242l-5.242,-5.354z"/>
  <path id="svg_177" fill="#FF8AE2" d="m477.976,540.035l-1.45,-1.562l-5.465,5.466l2.899,0l4.016,-3.904z"/>
  <path id="svg_178" fill="#93C2DB" d="m524.933,563.458l0,11.711l-8.03,0l0,-3.346l0,-8.812l-5.689,0l0,-16.842l-10.261,0l0,25.654l5.242,0l0,16.508l7.808,0l2.9,0l13.719,0l0,-7.919l0,-5.243l0,-11.711l-5.689,0z"/>
  <path id="svg_179" fill="#FF8AE2" d="m534.859,546.058l0,-6.916l-7.361,0l0,7.027l-2.565,0l0,17.289l5.688,0l0,11.711l0,4.685l4.238,0l0,-8.031l3.57,0l0,-25.765l-3.57,0z"/>
  <path id="svg_180" fill="#ffffff" d="m529.728,531.558l-17.399,0l0,4.238l-6.135,0l0,10.373l5.019,0l0,16.843l5.689,0l0,-16.843l10.596,0l0,-7.027l2.23,0l0,-7.584z"/>
  <path id="svg_181" fill="#ffffff" d="m417.636,582.42l-5.354,-5.354l-8.923,8.923l-5.577,0l0,-20.189l4.796,-4.796l1.785,-1.784l1.896,-1.785l3.681,-3.681l0,-5.577l0,-9.146l-7.92,-7.808l-10.93,10.931l1.896,1.785l5.465,-5.466l4.127,4.239l0,14.611l-11.153,11.154l-0.893,0.893l0,18.292l7.25,0l13.05,0l1.45,0l5.354,-5.242z"/>
  <path id="svg_182" fill="#9c4668" d="m409.939,548.177l0,5.577l-3.681,3.681l-1.896,1.785l-1.785,1.784l-4.796,4.796l0,20.189l3.012,0l0,-20.189l4.796,-4.796l1.673,-1.784l1.896,-1.785l3.681,-3.681l0,-5.577l0,-9.146l-7.919,-7.808l-2.9,0l7.919,7.808l0,9.146z"/>
  <path id="svg_183" fill="#FF8AE2" d="m399.901,540.035l-1.45,-1.562l-5.466,5.466l2.9,0l4.016,-3.904z"/>
  <path id="svg_184" fill="#FF8AE2" d="m415.293,577.066l-3.012,0l5.354,5.354l-5.354,5.242l3.012,0l5.242,-5.242l-5.242,-5.354z"/>
  <path id="svg_185" fill="#93C2DB" d="m446.857,563.458l0,11.711l-8.03,0l0,-3.346l0,-8.812l-5.689,0l0,-16.842l-10.261,0l0,25.654l5.242,0l0,16.508l7.808,0l2.9,0l13.719,0l0,-7.919l0,-5.243l0,-11.711l-5.689,0z"/>
  <path id="svg_186" fill="#FF8AE2" d="m456.784,546.058l0,-6.916l-7.361,0l0,7.027l-2.566,0l0,17.289l5.689,0l0,11.711l0,4.685l4.238,0l0,-8.031l3.569,0l0,-25.765l-3.569,0z"/>
  <path id="svg_187" fill="#ffffff" d="m451.653,531.558l-17.399,0l0,4.238l-6.135,0l0,10.373l5.019,0l0,16.843l5.689,0l0,-16.843l10.595,0l0,-7.027l2.231,0l0,-7.584z"/>
  <path id="svg_188" fill="#FF8AE2" d="m408.936,425.706c0.308,0 0.557,-0.249 0.557,-0.557c0,-0.308 -0.249,-0.558 -0.557,-0.558c-0.308,0 -0.558,0.25 -0.558,0.558c0,0.308 0.25,0.557 0.558,0.557z"/>
  <path id="svg_189" fill="#FF8AE2" d="m407.708,440.318c0.308,0 0.558,-0.25 0.558,-0.558c0,-0.308 -0.25,-0.557 -0.558,-0.557c-0.308,0 -0.558,0.249 -0.558,0.557c0,0.308 0.25,0.558 0.558,0.558z"/>
  <path id="svg_190" fill="#FF8AE2" d="m410.162,448.237c0.308,0 0.558,-0.249 0.558,-0.557c0,-0.308 -0.25,-0.558 -0.558,-0.558c-0.308,0 -0.558,0.25 -0.558,0.558c0,0.308 0.25,0.557 0.558,0.557z"/>
  <path id="svg_191" fill="#FF8AE2" d="m407.263,433.626c0.308,0 0.557,-0.25 0.557,-0.558c0,-0.308 -0.249,-0.558 -0.557,-0.558c-0.308,0 -0.558,0.25 -0.558,0.558c0,0.308 0.25,0.558 0.558,0.558z"/>
  <path id="svg_192" fill="#FF8AE2" d="m412.281,420.241c0.308,0 0.558,-0.25 0.558,-0.558c0,-0.308 -0.25,-0.558 -0.558,-0.558c-0.308,0 -0.557,0.25 -0.557,0.558c0,0.308 0.249,0.558 0.557,0.558z"/>
  <path id="svg_193" fill="#FF8AE2" d="m401.351,414.106c0.308,0 0.557,-0.25 0.557,-0.558c0,-0.308 -0.249,-0.557 -0.557,-0.557c-0.308,0 -0.558,0.249 -0.558,0.557c0,0.308 0.25,0.558 0.558,0.558z"/>
  <path id="svg_194" fill="#FF8AE2" d="m417.189,432.956c0.308,0 0.557,-0.249 0.557,-0.557c0,-0.308 -0.249,-0.558 -0.557,-0.558c-0.308,0 -0.558,0.25 -0.558,0.558c0,0.308 0.25,0.557 0.558,0.557z"/>
  <path id="svg_195" fill="#FF8AE2" d="m425.108,417.452c0.308,0 0.558,-0.249 0.558,-0.557c0,-0.308 -0.25,-0.558 -0.558,-0.558c-0.308,0 -0.557,0.25 -0.557,0.558c0,0.308 0.249,0.557 0.557,0.557z"/>
  <path id="svg_196" fill="#FF8AE2" d="m435.927,419.571c0.308,0 0.557,-0.249 0.557,-0.557c0,-0.308 -0.249,-0.558 -0.557,-0.558c-0.308,0 -0.558,0.25 -0.558,0.558c0,0.308 0.25,0.557 0.558,0.557z"/>
  <path id="svg_197" fill="#FF8AE2" d="m389.975,422.36c0.308,0 0.557,-0.25 0.557,-0.558c0,-0.308 -0.249,-0.557 -0.557,-0.557c-0.308,0 -0.558,0.249 -0.558,0.557c0,0.308 0.25,0.558 0.558,0.558z"/>
  <path id="svg_198" fill="#FF8AE2" d="m398.563,427.268c0.308,0 0.557,-0.25 0.557,-0.558c0,-0.308 -0.249,-0.558 -0.557,-0.558c-0.308,0 -0.558,0.25 -0.558,0.558c0,0.308 0.25,0.558 0.558,0.558z"/>
  <path id="svg_199" fill="#FF8AE2" d="m397.335,420.018c0.308,0 0.558,-0.25 0.558,-0.558c0,-0.308 -0.25,-0.558 -0.558,-0.558c-0.308,0 -0.558,0.25 -0.558,0.558c0,0.308 0.25,0.558 0.558,0.558z"/>
  <path id="svg_200" fill="#FF8AE2" d="m389.193,412.21c0.308,0 0.558,-0.25 0.558,-0.558c0,-0.308 -0.25,-0.557 -0.558,-0.557c-0.308,0 -0.557,0.249 -0.557,0.557c0,0.308 0.249,0.558 0.557,0.558z"/>
  <path id="svg_201" fill="#FF8AE2" d="m416.631,423.698c0.308,0 0.558,-0.249 0.558,-0.557c0,-0.308 -0.25,-0.558 -0.558,-0.558c-0.308,0 -0.558,0.25 -0.558,0.558c0,0.308 0.25,0.557 0.558,0.557z"/>
  <path id="svg_202" fill="#FF8AE2" d="m480.318,441.545c0.308,0 0.558,-0.25 0.558,-0.558c0,-0.308 -0.25,-0.557 -0.558,-0.557c-0.308,0 -0.557,0.249 -0.557,0.557c0,0.308 0.249,0.558 0.557,0.558z"/>
  <path id="svg_203" fill="#FF8AE2" d="m511.549,425.26c0.308,0 0.558,-0.25 0.558,-0.558c0,-0.308 -0.25,-0.557 -0.558,-0.557c-0.308,0 -0.558,0.249 -0.558,0.557c0,0.308 0.25,0.558 0.558,0.558z"/>
  <path id="svg_204" fill="#FF8AE2" d="m491.249,450.914c0.308,0 0.558,-0.249 0.558,-0.557c0,-0.308 -0.25,-0.558 -0.558,-0.558c-0.308,0 -0.558,0.25 -0.558,0.558c0,0.308 0.25,0.557 0.558,0.557z"/>
  <path id="svg_205" fill="#FF8AE2" d="m486.676,446.118c0.308,0 0.557,-0.25 0.557,-0.558c0,-0.308 -0.249,-0.558 -0.557,-0.558c-0.308,0 -0.558,0.25 -0.558,0.558c0,0.308 0.25,0.558 0.558,0.558z"/>
  <path id="svg_206" fill="#FF8AE2" d="m492.476,458.164c0.308,0 0.557,-0.249 0.557,-0.557c0,-0.308 -0.249,-0.558 -0.557,-0.558c-0.308,0 -0.558,0.25 -0.558,0.558c0,0.308 0.25,0.557 0.558,0.557z"/>
  <path id="svg_207" fill="#FF8AE2" d="m521.252,431.506c0.308,0 0.558,-0.249 0.558,-0.557c0,-0.308 -0.25,-0.558 -0.558,-0.558c-0.308,0 -0.558,0.25 -0.558,0.558c0,0.308 0.25,0.557 0.558,0.557z"/>
  <path id="svg_208" fill="#FF8AE2" d="m480.876,452.81c0.308,0 0.558,-0.249 0.558,-0.557c0,-0.308 -0.25,-0.558 -0.558,-0.558c-0.308,0 -0.558,0.25 -0.558,0.558c0,0.308 0.25,0.557 0.558,0.557z"/>
  <path id="svg_209" fill="#FF8AE2" d="m510.991,433.626c0.308,0 0.558,-0.25 0.558,-0.558c0,-0.308 -0.25,-0.558 -0.558,-0.558c-0.308,0 -0.557,0.25 -0.557,0.558c0,0.308 0.249,0.558 0.557,0.558z"/>
  <path id="svg_210" fill="#FF8AE2" d="m524.486,422.472c0.308,0 0.558,-0.25 0.558,-0.558c0,-0.308 -0.25,-0.558 -0.558,-0.558c-0.308,0 -0.557,0.25 -0.557,0.558c0,0.308 0.249,0.558 0.557,0.558z"/>
  <path id="svg_211" fill="#FF8AE2" d="m529.506,418.568c0.308,0 0.558,-0.25 0.558,-0.558c0,-0.308 -0.25,-0.558 -0.558,-0.558c-0.308,0 -0.558,0.25 -0.558,0.558c0,0.308 0.25,0.558 0.558,0.558z"/>
  <path id="svg_212" fill="#FF8AE2" d="m501.511,427.268c0.308,0 0.557,-0.25 0.557,-0.558c0,-0.308 -0.249,-0.558 -0.557,-0.558c-0.308,0 -0.558,0.25 -0.558,0.558c0,0.308 0.25,0.558 0.558,0.558z"/>
  <path id="svg_213" fill="#FF8AE2" d="m484.445,435.968c0.308,0 0.558,-0.25 0.558,-0.558c0,-0.308 -0.25,-0.557 -0.558,-0.557c-0.308,0 -0.557,0.249 -0.557,0.557c0,0.308 0.249,0.558 0.557,0.558z"/>
  <path id="svg_214" fill="#FF8AE2" d="m516.345,419.571c0.308,0 0.557,-0.249 0.557,-0.557c0,-0.308 -0.249,-0.558 -0.557,-0.558c-0.308,0 -0.558,0.25 -0.558,0.558c0,0.308 0.25,0.557 0.558,0.557z"/>
  <path id="svg_215" fill="#FF8AE2" d="m506.195,417.452c0.308,0 0.558,-0.249 0.558,-0.557c0,-0.308 -0.25,-0.558 -0.558,-0.558c-0.308,0 -0.557,0.25 -0.557,0.558c0,0.308 0.249,0.557 0.557,0.557z"/>
  <path id="svg_216" fill="#FF8AE2" d="m491.807,440.095c0.308,0 0.557,-0.25 0.557,-0.558c0,-0.308 -0.249,-0.558 -0.557,-0.558c-0.308,0 -0.558,0.25 -0.558,0.558c0,0.308 0.25,0.558 0.558,0.558z"/>
  <path id="svg_217" fill="#FF8AE2" d="m604.011,482.926c0.308,0 0.557,-0.25 0.557,-0.558c0,-0.308 -0.249,-0.557 -0.557,-0.557c-0.308,0 -0.558,0.249 -0.558,0.557c0,0.308 0.25,0.558 0.558,0.558z"/>
  <path id="svg_218" fill="#FF8AE2" d="m603.231,462.403c0.308,0 0.557,-0.25 0.557,-0.558c0,-0.308 -0.249,-0.557 -0.557,-0.557c-0.308,0 -0.558,0.249 -0.558,0.557c0,0.308 0.25,0.558 0.558,0.558z"/>
  <path id="svg_219" fill="#FF8AE2" d="m603.341,446.787c0.308,0 0.558,-0.249 0.558,-0.557c0,-0.308 -0.25,-0.558 -0.558,-0.558c-0.308,0 -0.558,0.25 -0.558,0.558c0,0.308 0.25,0.557 0.558,0.557z"/>
  <path id="svg_220" fill="#FF8AE2" d="m601.11,472.33c0.308,0 0.558,-0.25 0.558,-0.558c0,-0.308 -0.25,-0.558 -0.558,-0.558c-0.308,0 -0.557,0.25 -0.557,0.558c0,0.308 0.249,0.558 0.557,0.558z"/>
  <path id="svg_221" fill="#FF8AE2" d="m595.869,499.322c0.308,0 0.558,-0.249 0.558,-0.557c0,-0.308 -0.25,-0.558 -0.558,-0.558c-0.308,0 -0.557,0.25 -0.557,0.558c0,0.308 0.249,0.557 0.557,0.557z"/>
  <path id="svg_222" fill="#FF8AE2" d="m593.191,508.245c0.309,0 0.558,-0.249 0.558,-0.557c0,-0.308 -0.249,-0.558 -0.558,-0.558c-0.308,0 -0.557,0.25 -0.557,0.558c0,0.308 0.249,0.557 0.557,0.557z"/>
  <path id="svg_223" fill="#FF8AE2" d="m595.869,454.818c0.308,0 0.558,-0.25 0.558,-0.558c0,-0.308 -0.25,-0.557 -0.558,-0.557c-0.308,0 -0.557,0.249 -0.557,0.557c0,0.308 0.249,0.558 0.557,0.558z"/>
  <path id="svg_224" fill="#FF8AE2" d="m605.015,497.761c0.308,0 0.557,-0.25 0.557,-0.558c0,-0.308 -0.249,-0.557 -0.557,-0.557c-0.308,0 -0.558,0.249 -0.558,0.557c0,0.308 0.25,0.558 0.558,0.558z"/>
  <path id="svg_225" fill="#FF8AE2" d="m596.538,482.591c0.308,0 0.558,-0.249 0.558,-0.557c0,-0.308 -0.25,-0.558 -0.558,-0.558c-0.308,0 -0.558,0.25 -0.558,0.558c0,0.308 0.25,0.557 0.558,0.557z"/>
  <path id="svg_226" fill="#FF8AE2" d="m591.854,491.961c0.308,0 0.557,-0.25 0.557,-0.558c0,-0.308 -0.249,-0.558 -0.557,-0.558c-0.308,0 -0.558,0.25 -0.558,0.558c0,0.308 0.25,0.558 0.558,0.558z"/>
  <path id="svg_227" fill="#FF8AE2" d="m590.403,464.41c0.308,0 0.558,-0.249 0.558,-0.557c0,-0.308 -0.25,-0.558 -0.558,-0.558c-0.308,0 -0.557,0.25 -0.557,0.558c0,0.308 0.249,0.557 0.557,0.557z"/>
  <path id="svg_228" fill="#FF8AE2" d="m311.452,505.457c0.308,0 0.558,-0.249 0.558,-0.557c0,-0.309 -0.25,-0.558 -0.558,-0.558c-0.308,0 -0.557,0.249 -0.557,0.558c0,0.308 0.249,0.557 0.557,0.557z"/>
  <path id="svg_229" fill="#FF8AE2" d="m328.071,502.445c0.308,0 0.558,-0.249 0.558,-0.557c0,-0.308 -0.25,-0.558 -0.558,-0.558c-0.308,0 -0.557,0.25 -0.557,0.558c0,0.308 0.249,0.557 0.557,0.557z"/>
  <path id="svg_230" fill="#FF8AE2" d="m312.01,442.437c0.308,0 0.557,-0.25 0.557,-0.558c0,-0.308 -0.249,-0.557 -0.557,-0.557c-0.308,0 -0.558,0.249 -0.558,0.557c0,0.308 0.25,0.558 0.558,0.558z"/>
  <path id="svg_231" fill="#FF8AE2" d="m317.252,421.468c0.308,0 0.558,-0.25 0.558,-0.558c0,-0.308 -0.25,-0.557 -0.558,-0.557c-0.308,0 -0.558,0.249 -0.558,0.557c0,0.308 0.25,0.558 0.558,0.558z"/>
  <path id="svg_232" fill="#FF8AE2" d="m326.732,411.541c0.308,0 0.558,-0.25 0.558,-0.558c0,-0.308 -0.25,-0.557 -0.558,-0.557c-0.308,0 -0.557,0.249 -0.557,0.557c0,0.308 0.249,0.558 0.557,0.558z"/>
  <path id="svg_233" fill="#FF8AE2" d="m313.683,476.122c0.308,0 0.557,-0.249 0.557,-0.557c0,-0.308 -0.249,-0.558 -0.557,-0.558c-0.308,0 -0.558,0.25 -0.558,0.558c0,0.308 0.25,0.557 0.558,0.557z"/>
  <path id="svg_234" fill="#FF8AE2" d="m313.236,498.542c0.308,0 0.558,-0.25 0.558,-0.558c0,-0.308 -0.25,-0.558 -0.558,-0.558c-0.308,0 -0.557,0.25 -0.557,0.558c0,0.308 0.249,0.558 0.557,0.558z"/>
  <path id="svg_235" fill="#FF8AE2" d="m315.356,459.28c0.308,0 0.557,-0.25 0.557,-0.558c0,-0.308 -0.249,-0.557 -0.557,-0.557c-0.308,0 -0.558,0.249 -0.558,0.557c0,0.308 0.25,0.558 0.558,0.558z"/>
  <path id="svg_236" fill="#FF8AE2" d="m321.602,493.634c0.308,0 0.557,-0.25 0.557,-0.558c0,-0.308 -0.249,-0.557 -0.557,-0.557c-0.308,0 -0.558,0.249 -0.558,0.557c0,0.308 0.25,0.558 0.558,0.558z"/>
  <path id="svg_237" fill="#FF8AE2" d="m318.367,501.553c0.308,0 0.558,-0.249 0.558,-0.557c0,-0.308 -0.25,-0.558 -0.558,-0.558c-0.308,0 -0.557,0.25 -0.557,0.558c0,0.308 0.249,0.557 0.557,0.557z"/>
  <path id="svg_238" fill="#FF8AE2" d="m321.156,410.649c0.308,0 0.558,-0.25 0.558,-0.558c0,-0.308 -0.25,-0.558 -0.558,-0.558c-0.308,0 -0.557,0.25 -0.557,0.558c0,0.308 0.249,0.558 0.557,0.558z"/>
  <path id="svg_239" fill="#FF8AE2" d="m318.256,481.142c0.308,0 0.558,-0.25 0.558,-0.558c0,-0.308 -0.25,-0.558 -0.558,-0.558c-0.308,0 -0.558,0.25 -0.558,0.558c0,0.308 0.25,0.558 0.558,0.558z"/>
  <path id="svg_240" fill="#FF8AE2" d="m326.064,485.268c0.308,0 0.557,-0.249 0.557,-0.557c0,-0.308 -0.249,-0.558 -0.557,-0.558c-0.308,0 -0.558,0.25 -0.558,0.558c0,0.308 0.25,0.557 0.558,0.557z"/>
  <path id="svg_241" fill="#FF8AE2" d="m312.01,412.433c0.308,0 0.557,-0.249 0.557,-0.557c0,-0.308 -0.249,-0.558 -0.557,-0.558c-0.308,0 -0.558,0.25 -0.558,0.558c0,0.308 0.25,0.557 0.558,0.557z"/>
  <path id="svg_242" fill="#FF8AE2" d="m314.352,468.537c0.308,0 0.557,-0.249 0.557,-0.557c0,-0.308 -0.249,-0.558 -0.557,-0.558c-0.308,0 -0.558,0.25 -0.558,0.558c0,0.308 0.25,0.557 0.558,0.557z"/>
  <path id="svg_243" fill="#FF8AE2" d="m508.871,539.811c0.37,0 0.67,-0.3 0.67,-0.669c0,-0.37 -0.3,-0.669 -0.67,-0.669c-0.369,0 -0.669,0.299 -0.669,0.669c0,0.369 0.3,0.669 0.669,0.669z"/>
  <path id="svg_244" fill="#FF8AE2" d="m521.81,534.792c0.369,0 0.669,-0.3 0.669,-0.669c0,-0.37 -0.3,-0.669 -0.669,-0.669c-0.37,0 -0.669,0.299 -0.669,0.669c0,0.369 0.299,0.669 0.669,0.669z"/>
  <path id="svg_245" fill="#FF8AE2" d="m516.79,540.927c0.37,0 0.67,-0.3 0.67,-0.669c0,-0.37 -0.3,-0.67 -0.67,-0.67c-0.369,0 -0.669,0.3 -0.669,0.67c0,0.369 0.3,0.669 0.669,0.669z"/>
  <path id="svg_246" fill="#FF8AE2" d="m524.263,542.934c0.369,0 0.669,-0.299 0.669,-0.669c0,-0.37 -0.3,-0.669 -0.669,-0.669c-0.37,0 -0.669,0.299 -0.669,0.669c0,0.37 0.299,0.669 0.669,0.669z"/>
  <path id="svg_247" fill="#FF8AE2" d="m514.671,545.276c0.37,0 0.669,-0.299 0.669,-0.669c0,-0.369 -0.299,-0.669 -0.669,-0.669c-0.369,0 -0.669,0.3 -0.669,0.669c0,0.37 0.3,0.669 0.669,0.669z"/>
  <path id="svg_248" fill="#FF8AE2" d="m514.002,560.892c0.37,0 0.669,-0.299 0.669,-0.669c0,-0.37 -0.299,-0.669 -0.669,-0.669c-0.369,0 -0.669,0.299 -0.669,0.669c0,0.37 0.3,0.669 0.669,0.669z"/>
  <path id="svg_249" fill="#FF8AE2" d="m512.998,552.527c0.37,0 0.669,-0.3 0.669,-0.669c0,-0.37 -0.299,-0.67 -0.669,-0.67c-0.369,0 -0.669,0.3 -0.669,0.67c0,0.369 0.3,0.669 0.669,0.669z"/>
  <path id="svg_250" fill="#FF8AE2" d="m430.796,539.811c0.37,0 0.669,-0.3 0.669,-0.669c0,-0.37 -0.299,-0.669 -0.669,-0.669c-0.369,0 -0.669,0.299 -0.669,0.669c0,0.369 0.3,0.669 0.669,0.669z"/>
  <path id="svg_251" fill="#FF8AE2" d="m434.923,542.934c0.37,0 0.669,-0.299 0.669,-0.669c0,-0.37 -0.299,-0.669 -0.669,-0.669c-0.369,0 -0.669,0.299 -0.669,0.669c0,0.37 0.3,0.669 0.669,0.669z"/>
  <path id="svg_252" fill="#FF8AE2" d="m446.858,535.461c0.369,0 0.669,-0.3 0.669,-0.669c0,-0.37 -0.3,-0.669 -0.669,-0.669c-0.37,0 -0.67,0.299 -0.67,0.669c0,0.369 0.3,0.669 0.67,0.669z"/>
  <path id="svg_253" fill="#FF8AE2" d="m443.065,541.596c0.369,0 0.669,-0.3 0.669,-0.669c0,-0.37 -0.3,-0.67 -0.669,-0.67c-0.37,0 -0.669,0.3 -0.669,0.67c0,0.369 0.299,0.669 0.669,0.669z"/>
  <path id="svg_254" fill="#FF8AE2" d="m435.927,549.515c0.37,0 0.669,-0.3 0.669,-0.669c0,-0.37 -0.299,-0.67 -0.669,-0.67c-0.37,0 -0.669,0.3 -0.669,0.67c0,0.369 0.299,0.669 0.669,0.669z"/>
  <path id="svg_255" fill="#FF8AE2" d="m436.596,538.361c0.37,0 0.669,-0.3 0.669,-0.669c0,-0.37 -0.299,-0.67 -0.669,-0.67c-0.37,0 -0.669,0.3 -0.669,0.67c0,0.369 0.299,0.669 0.669,0.669z"/>
  <path id="svg_256" fill="#FF8AE2" d="m435.592,558.773c0.37,0 0.669,-0.3 0.669,-0.67c0,-0.369 -0.299,-0.669 -0.669,-0.669c-0.37,0 -0.669,0.3 -0.669,0.669c0,0.37 0.299,0.67 0.669,0.67z"/>
  <path id="svg_257" fill="#9c4668" d="m773.436,236.424c0,-1.5616 -3.012,-2.2308 -3.57,-3.2347c-0.334,-0.5577 0.67,-1.0038 1.45,-0.8923c0.558,0 5.354,0.8923 8.7,0.8923c11.377,0.3346 14.388,-2.4539 14.277,-4.0154c-0.112,-1.5616 -4.462,-2.3423 -5.131,-3.3462c-0.558,-1.0038 0.223,-2.0077 4.127,-2.6769c4.015,-0.6693 10.931,-1.0039 15.504,-3.1231c4.573,-2.1193 3.569,-4.5732 -2.231,-6.3578c-2.119,-0.8923 -0.781,-2.2308 3.234,-5.3539c4.016,-3.1231 13.942,-12.9386 10.819,-18.06937c-2.676,-3.79235 -7.584,-1.56156 -11.042,2.00767c-2.677,2.677 -7.919,8.1424 -9.815,8.254c-3.458,0.3346 -0.334,-4.9078 -2.119,-6.804c-1.785,-1.89612 -5.577,1.4501 -7.138,4.2386c-1.562,2.7884 -2.789,7.25 -4.462,10.4847c-1.784,3.5692 -3.569,2.2307 -4.127,1.0038c-0.446,-1.2269 0.335,-6.2462 -3.123,-6.8039c-3.011,-0.4462 -6.58,7.2501 -9.592,11.6001c-1.115,1.6731 -2.565,3.2346 -4.127,4.5731c-0.892,0.6693 -1.338,0.4462 -1.561,0c-0.446,-0.6692 0,-4.9077 -3.012,-5.8c-2.676,-0.6693 -5.242,3.7923 -8.699,7.9193c-2.789,3.3462 -6.693,5.1308 -10.931,6.4693c-5.8,1.7846 -14.611,2.2307 -14.611,2.2307c0,0 4.35,1.8962 8.03,3.0116c8.923,2.677 13.162,4.127 23.2,5.1308c7.584,0.7808 15.503,1.5616 15.95,-1.3384c0,0 0,0.1115 0,0z"/>
  <path id="svg_258" fill="#9c4668" d="m309.449,322.867c4.796,-10.15 3.235,-22.865 -2.119,-32.904c-5.242,-9.8155 -12.046,-16.8424 -22.977,-21.9733c-2.676,-1.2269 -9.926,-3.3461 -9.926,-3.3461c0,0 0.111,6.1346 0.334,7.9192c1.004,7.4732 2.12,15.2812 6.693,20.4122c4.238,4.796 9.703,7.138 15.392,10.261c15.726,8.812 12.603,19.631 12.603,19.631z"/>
  <path id="svg_259" fill="#9c4668" d="m228.916,393.695c0,0 29.222,-1.45 40.153,20.077c11.711,22.977 23.2,30.785 23.2,30.785c0,0 -23.758,3.234 -35.023,-10.373c-11.376,-13.608 -6.357,-27.328 -28.33,-40.489z"/>
  <path id="svg_260" fill="#9c4668" d="m769.197,339.152c0,0 -5.688,-15.058 1.562,-24.985c5.688,-7.919 19.184,-9.815 31.23,-8.477c8.142,0.893 18.515,-4.35 18.515,-4.35c0,0 0,12.047 -13.161,15.839c-7.362,2.119 -13.831,-1.115 -23.981,5.688c-13.272,8.812 -14.165,16.285 -14.165,16.285z"/>
  <path id="svg_261" fill="#9c4668" d="m469.723,346.625c-4.796,-10.15 -3.123,-22.754 2.12,-32.904c9.592,-18.404 32.903,-21.973 32.903,-21.973c0,0 -2.008,15.057 -9.258,23.646c-4.127,4.908 -11.376,6.692 -16.396,10.708c-11.934,9.481 -9.369,20.523 -9.369,20.523z"/>
  <path id="svg_262" fill="#9c4668" d="m709.972,368.487c-0.893,-0.669 -37.922,-13.943 -4.573,-41.158l22.865,-18.404c0,0 0.78,20.412 -13.608,33.796c-14.276,13.05 -4.684,25.766 -4.684,25.766z"/>
  <path id="svg_263" fill="#9c4668" d="m341.233,368.487c-0.892,-0.669 -37.922,-13.943 -4.573,-41.158l22.865,-18.404c0,0 0.781,20.412 -13.607,33.796c-14.165,13.05 -4.685,25.766 -4.685,25.766z"/>
  <path id="svg_264" fill="#9c4668" d="m669.819,447.791c0,0 12.939,-19.965 35.023,-21.638c18.515,-1.45 41.603,9.257 41.603,9.257c0,0 -18.069,15.058 -40.934,12.604c-16.507,-1.784 -21.303,-7.25 -35.692,-0.223z"/>
  <path id="svg_265" fill="#9c4668" d="m218.432,254.9397c-2.9,0 -3.123,8.0308 -3.457,15.6155c-0.335,10.0386 0.557,14.3888 2.007,23.6468c0.558,3.792 1.896,8.365 1.896,8.365c0,0 1.562,-8.7 4.127,-14.277c1.896,-4.015 4.127,-7.6962 7.808,-10.0385c4.461,-2.7885 9.257,-4.7962 9.034,-7.4732c-0.558,-3.1231 -4.796,-3.2346 -5.354,-3.7923c-0.334,-0.3347 -0.557,-0.7808 0.223,-1.5616c1.562,-1.3385 3.347,-2.5654 5.131,-3.4577c4.685,-2.4539 12.827,-4.9077 12.715,-7.9193c-0.111,-3.5693 -5.13,-3.3462 -6.246,-4.0154c-1.227,-0.6693 -2.231,-2.5654 1.562,-3.9039c3.457,-1.2269 8.03,-1.7846 11.042,-3.0116c3.011,-1.1154 6.803,-4.35 5.242,-6.4693c-1.673,-2.1192 -7.25,0.3347 -6.469,-3.1231c0.446,-1.8961 6.469,-6.3577 9.592,-8.5885c4.015,-2.9 6.915,-7.5847 3.458,-10.7078c-4.685,-3.7923 -15.727,4.6847 -19.408,8.2539c-3.68,3.5693 -5.13,4.6847 -5.8,2.5654c-1.003,-5.9116 -3.346,-7.25 -6.023,-3.0115c-2.676,4.2385 -4.015,11.0424 -5.13,14.9463c-1.116,3.9038 -2.342,4.4615 -3.235,3.7923c-0.892,-0.6692 -1.115,-5.2424 -2.677,-5.4654c-1.45,-0.3347 -4.573,2.2308 -5.911,13.6078c-0.335,3.2346 -0.223,8.1424 -0.223,8.7001c-0.112,0.8923 -0.558,1.7846 -1.115,1.3384c-1.004,-0.6692 -1.227,-3.9039 -2.789,-4.0154z"/>
  <path id="svg_266" fill="#93C2DB" d="m617.954,337.144c1.45,-0.335 1.45,-3.458 2.342,-4.127c0.558,-0.446 1.004,0.446 1.227,1.227c0.112,0.558 0.335,5.465 0.893,8.7c2.119,11.266 5.353,13.496 6.803,13.05c1.45,-0.446 1.339,-4.908 2.231,-5.688c0.892,-0.781 2.008,-0.223 3.458,3.457c1.45,3.793 3.234,10.485 6.246,14.501c3.011,4.015 5.13,2.453 5.688,-3.57c0.446,-2.231 2.008,-1.227 5.911,2.008c3.904,3.235 15.392,10.819 19.742,6.804c3.123,-3.346 -0.111,-7.808 -4.238,-10.373c-3.123,-2.12 -9.481,-6.023 -10.038,-7.92c-1.004,-3.346 4.684,-1.338 6.134,-3.569c1.45,-2.231 -2.565,-5.131 -5.577,-6.023c-3.011,-0.892 -7.584,-1.227 -11.042,-2.119c-3.792,-1.004 -2.9,-3.012 -1.784,-3.793c1.003,-0.78 6.023,-0.892 5.911,-4.461c-0.111,-3.012 -8.365,-4.908 -13.161,-6.916c-1.785,-0.78 -3.569,-1.896 -5.242,-3.123c-0.781,-0.669 -0.67,-1.227 -0.335,-1.561c0.558,-0.558 4.685,-1.116 5.019,-4.239c0,-2.677 -4.796,-4.35 -9.369,-6.804c-3.904,-2.007 -6.357,-5.465 -8.477,-9.369c-2.9,-5.242 -5.019,-13.496 -5.019,-13.496c0,0 -1.004,4.238 -1.338,8.142c-0.669,9.369 -1.227,13.831 -0.112,23.758c0.446,7.696 1.227,15.727 4.127,15.504z"/>
  <path id="svg_267" fill="#FF8AE2" d="m581.37,262.6358c-0.112,0.223 -11.711,17.8463 -14.277,45.2852c-0.223,-2.008 -0.223,-4.796 -0.334,-6.916c3.569,-24.0922 13.273,-39.0385 13.384,-39.15l1.227,0.7808z"/>
  <path id="svg_268" fill="#FF8AE2" d="m273.418,435.968c-6.357,-3.012 -8.922,-8.254 -11.822,-14.389c-2.12,-4.461 -4.573,-9.592 -9.035,-14.5c-12.046,-13.05 -39.372,-15.95 -39.595,-15.95l0.223,-1.673c1.115,0.112 28.219,3.012 40.711,16.508c4.684,5.019 7.138,10.262 9.369,14.835c2.788,5.8 5.13,10.819 10.93,13.496l-0.781,1.673z"/>
  <path id="svg_269" fill="#FF8AE2" d="m218.766,315.394c-0.669,-5.242 -3.235,-32.123 6.023,-51.9774c10.93,-23.2002 31.899,-38.3695 32.122,-38.4811l1.004,1.3385c-0.223,0.1116 -20.857,15.0578 -31.565,37.9234c-9.146,19.4076 -6.469,45.9546 -5.911,51.0846l-1.673,0.112z"/>
  <path id="svg_270" fill="#FF8AE2" d="m744.324,231.9624c-14.388,0 -27.326,-3.1231 -30.784,-4.0154l0.446,-1.6731c5.019,1.3385 30.896,7.4731 51.418,1.1154c24.092,-7.4732 41.603,-25.8772 41.826,-26.1002l1.227,1.1154c-0.223,0.223 -18.069,18.8501 -42.495,26.5463c-7.027,2.2308 -14.611,3.0116 -21.638,3.0116z"/>
  <path id="svg_271" fill="#FF8AE2" d="m658.107,364.025c-0.223,-0.111 -21.973,-13.608 -34.465,-35.916c-4.907,-8.7 -7.25,-19.184 -8.588,-28.442c-0.335,-2.231 -0.669,-6.804 -0.669,-6.804l1.004,-5.242c0.557,10.819 2.788,27.327 9.703,39.708c12.269,21.861 33.684,35.246 33.907,35.358l-0.892,1.338z"/>
  <path stroke="null" id="svg_272" fill="#FF8AE2" d="m313.125,307.251c-0.111,-1.338 -0.223,-2.788 -0.446,-4.127c-9.369,-14.723 -27.661,-27.4384 -28.553,-27.9961l-0.893,1.3385c0.112,0.1115 21.638,14.9466 29.892,30.7846z"/>
  <path id="svg_273" fill="#FF8AE2" d="m349.375,323.648c-0.112,0.111 -6.804,6.581 -13.161,12.604c-7.808,7.362 -10.596,14.835 -8.477,23.535c0.781,0.781 1.561,1.561 2.454,2.231c-3.235,-9.258 -1.004,-16.843 7.25,-24.539c6.357,-6.023 13.161,-12.604 13.161,-12.604l-1.227,-1.227z"/>
  <path id="svg_274" fill="#FF8AE2" d="m716.997,326.213c-0.111,0.112 -6.803,6.581 -13.161,12.604c-6.357,6.023 -9.369,12.047 -9.146,18.739c0.558,0.781 1.227,1.45 1.896,2.119c-1.003,-7.138 1.673,-13.385 8.477,-19.742c6.358,-6.023 13.161,-12.604 13.161,-12.604l-1.227,-1.116z"/>
  <path id="svg_275" fill="#FF8AE2" d="m467.491,326.771c-0.223,1.45 -0.446,2.9 -0.446,4.35c8.031,-16.508 27.438,-27.662 27.661,-27.774l-0.781,-1.45c-0.111,0 -7.027,4.016 -14.276,10.597c-4.127,3.681 -8.7,8.477 -12.158,14.277z"/>
  <path id="svg_276" fill="#FF8AE2" d="m781.019,314.055c7.696,-3.792 19.853,-2.453 19.965,-2.453l0.223,-1.674c-0.558,-0.111 -12.827,-1.45 -20.969,2.566c-5.354,2.565 -9.704,6.692 -13.161,12.269c-0.112,1.116 -0.112,2.342 0,3.458c3.457,-6.469 8.142,-11.266 13.942,-14.166z"/>
  <path id="svg_277" fill="#FF8AE2" d="m661.564,456.268l-1.338,-1.004c0.223,-0.223 4.461,-5.8 11.711,-10.261c4.015,-2.454 8.477,-4.462 14.165,-6.47c15.503,-5.242 38.368,-3.457 39.372,-3.346l-0.111,1.673c-0.223,0 -23.534,-1.896 -38.703,3.346c-5.689,1.897 -9.927,3.904 -13.831,6.247c-6.915,4.238 -11.153,9.815 -11.265,9.815z"/>
  <path stroke="null" id="svg_278" fill="#93c2db" d="m109.08991,163.759l5.55008,-5.10484l-7.25721,-6.80645l0,-79.45249l-11.10016,-10.07882l-0.14162,0l0,89.53132l12.94891,11.91128z"/>
  <path stroke="null" id="svg_279" fill="#93c2db" d="m145.69736,143.479l-13.52396,0l7.70364,5.84865l-23.28283,17.42168l-7.87555,5.72324l-15.57765,11.69844l13.52396,0l15.57919,-11.69844l7.87401,-5.72324l23.28283,-17.42168l-7.70364,-5.84865z"/>
  <path stroke="null" id="svg_280" fill="#93c2db" d="m113.421,79.3743l10.64815,0l18.33184,-16.7809l-18.33184,-16.7809l-10.64815,0l18.33184,16.7809l-18.33184,16.7809z"/>
  <path stroke="null" id="svg_281" fill="#ffffff" d="m110.90833,160.89463l-14.33942,-11.57483l0,-87.0029l-28.83991,23.14977l0,75.42796l28.83991,23.27738l14.33942,-11.70255l7.24954,-5.72355l21.43213,-17.4261l-7.0913,-5.85127l-21.59037,17.4261z"/>
  <path transform="rotate(0.11951781064271927 113.95149993896388,62.14699935912913) " stroke="null" id="svg_282" fill="#ffffff" d="m113.95208,44.8463l-17.80108,17.3007l17.80108,17.3007l17.79992,-17.3007l-17.79992,-17.3007z"/>
  <path id="svg_283" fill="#9c4668" d="m84.883,82.621l-2.119,0l0,61.012l2.119,0l0,-61.012z"/>
  <path transform="rotate(-180 66.44449615478516,66.7067642211914) " stroke="null" id="svg_289" fill="#ff8ae2" d="m42.741,84.715c0,0 7.86509,-14.43068 21.62778,-16.06183c16.93086,-1.88202 22.61104,-13.17412 25.77921,-19.94961c0,0 -23.26622,-0.37685 -32.33297,5.39519c-9.28416,5.89691 -11.90586,12.54753 -15.07403,30.61625z"/>
  <path id="svg_290" fill="#9c4668" d="m40.819,160.791c0,0 12.939,-19.965 35.023,-21.638c18.515,-1.45 41.603,9.257 41.603,9.257c0,0 -18.069,15.058 -40.934,12.604c-16.507,-1.784 -21.303,-7.25 -35.692,-0.223z"/>
  <path id="svg_291" fill="#FF8AE2" d="m32.564,169.268l-1.338,-1.004c0.223,-0.223 4.461,-5.8 11.711,-10.261c4.015,-2.454 8.477,-4.462 14.165,-6.47c15.503,-5.242 38.368,-3.457 39.372,-3.346l-0.111,1.673c-0.223,0 -23.534,-1.896 -38.703,3.346c-5.689,1.897 -9.927,3.904 -13.831,6.247c-6.915,4.238 -11.153,9.815 -11.265,9.815z"/>
  <path stroke="null" id="svg_300" fill="#93c2db" d="m167.711,41.3237l-8.142,0l15.281,13.49802l0,22.46387l0,13.49802l0,26.89773l0,58.42585l-10.262,9.06381l8.254,0l10.15,-9.06381l0,-121.28548l-15.281,-13.49802z"/>
  <path stroke="null" id="svg_301" fill="#ffffff" d="m174.851,76.53559l0,-22.62004l-15.281,-13.59186l-15.28,13.59186l10.15,9.02818l0,113.10045l10.15,9.12682l10.261,-9.12682l0,-58.83202l0,-27.08472l0,-13.59186z"/>
  <path stroke="null" id="svg_302" fill="#9c4668" d="m164.589,60.0703l-2.119,0l0,113.7087l2.119,0l0,-113.7087z"/>
  <path id="svg_303" fill="#93c2db" d="m644.5,341.609l0,-76.2925l0,-15.2809l0,-25.431l-15.28,-15.2809l-8.812,0l15.281,15.2809l0,25.431l0,15.2809l0,76.2925l15.169,15.281l-15.169,15.281l8.811,0l15.28,-15.281l-15.28,-15.281z"/>
  <path id="svg_304" fill="#93c2db" d="m659.78,251.0356l-8.923,0l20.412,20.3002l0,66.1432l-15.95,15.95l4.461,4.461l20.3,-20.411l0,-66.1432l-20.3,-20.3002z"/>
  <path id="svg_305" fill="#ffffff" d="m635.688,266.3166l15.169,15.2809l0,76.2925l20.411,-20.411l0,-66.1432l-20.411,-20.3002l-15.169,15.281z"/>
  <path id="svg_306" fill="#9c4668" d="m660.783,276.9131l-2.119,0l0,59.7849l2.119,0l0,-59.7849z"/>
  <path id="svg_307" fill="#9c4668" d="m617.954,337.144c1.45,-0.335 1.45,-3.458 2.342,-4.127c0.558,-0.446 1.004,0.446 1.227,1.227c0.112,0.558 0.335,5.465 0.893,8.7c2.119,11.266 5.353,13.496 6.803,13.05c1.45,-0.446 1.339,-4.908 2.231,-5.688c0.892,-0.781 2.008,-0.223 3.458,3.457c1.45,3.793 3.234,10.485 6.246,14.501c3.011,4.015 5.13,2.453 5.688,-3.57c0.446,-2.231 2.008,-1.227 5.911,2.008c3.904,3.235 15.392,10.819 19.742,6.804c3.123,-3.346 -0.111,-7.808 -4.238,-10.373c-3.123,-2.12 -9.481,-6.023 -10.038,-7.92c-1.004,-3.346 4.684,-1.338 6.134,-3.569c1.45,-2.231 -2.565,-5.131 -5.577,-6.023c-3.011,-0.892 -7.584,-1.227 -11.042,-2.119c-3.792,-1.004 -2.9,-3.012 -1.784,-3.793c1.003,-0.78 6.023,-0.892 5.911,-4.461c-0.111,-3.012 -8.365,-4.908 -13.161,-6.916c-1.785,-0.78 -3.569,-1.896 -5.242,-3.123c-0.781,-0.669 -0.67,-1.227 -0.335,-1.561c0.558,-0.558 4.685,-1.116 5.019,-4.239c0,-2.677 -4.796,-4.35 -9.369,-6.804c-3.904,-2.007 -6.357,-5.465 -8.477,-9.369c-2.9,-5.242 -5.019,-13.496 -5.019,-13.496c0,0 -1.004,4.238 -1.338,8.142c-0.669,9.369 -1.227,13.831 -0.112,23.758c0.446,7.696 1.227,15.727 4.127,15.504z"/>
  <path id="svg_308" fill="#FF8AE2" d="m658.107,364.025c-0.223,-0.111 -21.973,-13.608 -34.465,-35.916c-4.907,-8.7 -7.25,-19.184 -8.588,-28.442c-0.335,-2.231 -0.669,-6.804 -0.669,-6.804l1.004,-5.242c0.557,10.819 2.788,27.327 9.703,39.708c12.269,21.861 33.684,35.246 33.907,35.358l-0.892,1.338z"/>
  <path stroke="null" id="svg_309" fill="#93c2db" d="m201.00136,45.03561l-10.14437,0l23.20597,12.32104l0,40.14507l-18.13321,9.68072l5.07162,2.70757l23.07864,-12.38829l0,-40.14507l-23.07864,-12.32104z"/>
  <path stroke="null" id="svg_310" fill="#ffffff" d="m180.688,52.16832l14.31633,10.13266l0,50.58902l19.26367,-13.53439l0,-43.85909l-19.26367,-13.46092l-14.31633,10.13272z"/>
  <path stroke="null" transform="rotate(-180 211.96852111816406,147.46279907226562) " id="svg_316" fill="#93c2db" d="m217.37555,108.03561l8.48147,0l-19.40199,14.98076l0,48.81111l15.16077,11.77048l-4.24026,3.29204l-19.29553,-15.06253l0,-48.81111l19.29553,-14.98076z"/>
  <path stroke="null" transform="rotate(179 200.881591796875,147.43829345703125) " id="svg_317" fill="#ffffff" d="m219.60044,119.99497l-15.96101,10.99346l0,54.8867l-21.47671,-14.68417l0,-47.58505l21.47671,-14.60446l15.96101,10.99353z"/>
  <path stroke="null" id="svg_322" fill="#9c4668" d="m208.883,125.621l-2.119,0l0,38.012l2.119,0l0,-38.012z"/>
  <path id="svg_323" fill="#9c4668" d="m206.449,131.867c4.796,-10.15 3.235,-22.865 -2.119,-32.904c-5.242,-9.8155 -12.046,-16.8424 -22.977,-21.9733c-2.676,-1.2269 -9.926,-3.3461 -9.926,-3.3461c0,0 0.111,6.1346 0.334,7.9192c1.004,7.4732 2.12,15.2812 6.693,20.4122c4.238,4.796 9.703,7.138 15.392,10.261c15.726,8.812 12.603,19.631 12.603,19.631z"/>
  <path stroke="null" id="svg_324" fill="#FF8AE2" d="m209.125,120.251c-0.111,-1.338 -0.223,-2.788 -0.446,-4.127c-9.369,-14.723 -27.661,-27.4384 -28.553,-27.9961l-0.893,1.3385c0.112,0.1115 21.638,14.9466 29.892,30.7846z"/>
  <path transform="rotate(99.77455139160156 154.47708129882812,29.371999740600586) " id="svg_325" fill="#ff8ae2" d="m148.978,47.3856c0,0 16.73,-12.9385 8.922,-36.0272c0,0 -9.592,3.3462 -7.919,13.3847c1.785,11.154 1.896,18.0694 -1.003,22.6425z"/>
  <path id="svg_326" fill="#ff8ae2" d="m100.3221,247.5781c0,0 9.9267,11.154 0,21.1925c-0.1116,0 -10.5959,-11.1539 0,-21.1925z"/>
  <path transform="rotate(99 139.1609344482422,179.17434692382812) " id="svg_328" fill="#ff8ae2" d="m139.3221,168.5781c0,0 9.9267,11.154 0,21.1925c-0.1116,0 -10.5959,-11.1539 0,-21.1925z"/>
  <path stroke="null" id="svg_330" fill="#93c2db" d="m261.942,40.5977l-8.922,0l15.28,23.61746l0,102.97968l-10.15,15.97716l8.812,0l10.149,-15.97716l0,-102.97968l-15.169,-23.61746z"/>
  <path stroke="null" id="svg_332" fill="#ffffff" d="m249,79.91461l0,86.39229l10.15,15.8651l10.15,-15.8651l0,-102.25739l-15.28,-23.45181l-15.169,23.45181l10.149,15.8651z"/>
  <path stroke="null" id="svg_333" fill="#9c4668" d="m259.484,59.894l-2.119,0l0,104.116l2.119,0l0,-104.116z"/>
  <path stroke="null" id="svg_334" fill="#93c2db" d="m337.425,37.7549l-8.812,0l0,17.2809l8.812,0l0,-17.2809z"/>
  <path stroke="null" id="svg_335" fill="#93c2db" d="m328.613,165.76l8.812,-9.76489l0,-80.46415l20.411,-22.49537l-8.812,0l-20.411,22.49537l0,90.22903z"/>
  <path stroke="null" id="svg_336" fill="#93c2db" d="m337.4711,152.61l5.16558,5.80255l-15.72625,17.15434l-10.44643,11.60511l9.06832,0l10.44643,-11.60511l15.72625,-17.15434l-5.16558,-5.80255l-9.06832,0z"/>
  <path stroke="null" id="svg_337" fill="#ffffff" d="m349.025,54.25851l-20.411,0l0,-16.50411l-35.58,38.42932l15.281,0l0,98.90382l10.149,11.08346l10.15,-11.08346l15.281,-16.38325l-5.019,-5.54173l-10.262,10.96249l0,-87.94133l20.411,-21.92521z"/>
  <path id="svg_338" fill="#9c4668" d="m319.245,78.9131l-2.119,0l0,72.9469l2.119,0l0,-72.9469z"/>
  <path id="svg_339" fill="#FF8AE2" d="m298.723,148.625c-0.224,-0.334 -0.335,-0.781 -0.447,-1.115c0.112,0.446 0.223,0.781 0.447,1.115z"/>
  <path id="svg_340" fill="#FF8AE2" d="m308.203,128.102c-12.046,9.481 -9.481,20.523 -9.481,20.523c1.896,4.016 5.911,6.358 9.592,7.697l-0.111,-28.22z"/>
  <path id="svg_341" fill="#93C2DB" d="m364.819,127.84c0,0 -8.031,-20.969 7.361,-29.892c0,0 1.785,3.904 1.004,10.373c-0.892,6.804 -5.354,7.808 -8.365,19.519z"/>
  <path id="svg_342" fill="#9c4668" d="m298.723,148.625c-4.796,-10.15 -3.123,-22.754 2.12,-32.904c9.592,-18.404 32.903,-21.973 32.903,-21.973c0,0 -2.008,15.057 -9.258,23.646c-4.127,4.908 -11.376,6.692 -16.396,10.708c-11.934,9.481 -9.369,20.523 -9.369,20.523z"/>
  <path id="svg_343" fill="#FF8AE2" d="m296.491,128.771c-0.223,1.45 -0.446,2.9 -0.446,4.35c8.031,-16.508 27.438,-27.662 27.661,-27.774l-0.781,-1.45c-0.111,0 -7.027,4.016 -14.276,10.597c-4.127,3.681 -8.7,8.477 -12.158,14.277z"/>
  <path id="svg_344" fill="#ffffff" d="m52.021,104.855c-1.785,-2.7885 -5.577,-3.5693 -8.365,-1.6731c-1.339,0.8923 -2.231,2.2308 -2.566,3.7923c-0.334,1.5616 0,3.2347 0.893,4.5731c0.557,0.8924 1.784,1.7847 2.788,2.0078l0,4.2385c0,1.2269 -1.004,4.0154 -4.015,4.0154l-10.931,0l0,-10.7078c0.781,-0.3346 1.562,-0.7808 2.119,-1.5616c2.231,-2.4538 2.008,-6.2462 -0.446,-8.477c-2.454,-2.2307 -6.246,-2.0077 -8.477,0.4462c-1.115,1.2269 -1.561,2.7885 -1.561,4.35c0,1.5616 0.781,3.1231 2.008,4.127c0.111,0.1115 0.223,0.2231 0.334,0.3346c0.446,0.3346 1.004,0.6693 1.562,0.8923l0,14.2771c-0.893,0.3346 -1.673,0.8923 -2.343,1.5615c-2.23,2.4539 -2.007,6.2462 0.447,8.477c0.111,0.1116 0.223,0.2231 0.334,0.3346c2.454,1.8962 6.023,1.5616 8.142,-0.7807c2.008,-2.3424 2.008,-5.9116 0,-8.0309c-0.334,-0.3346 -0.557,-0.5577 -0.78,-0.7807l9.48,0c5.8,0 8.365,-4.9078 8.365,-8.254l0,-4.1269c0.335,-0.1116 0.781,-0.3346 1.116,-0.5577c0.111,-0.1116 0.223,-0.2231 0.334,-0.3346c1.116,-0.8924 1.896,-2.1193 2.231,-3.5693c0.558,-1.6731 0.223,-3.2346 -0.669,-4.5731zm-27.215,0.7808c0,-0.7808 0.223,-1.4501 0.669,-2.0078c1.004,-1.1153 2.566,-1.2269 3.681,-0.3346c0.112,0 0.111,0.1116 0.111,0.1116c1.116,1.0038 1.227,2.7885 0.224,3.9039c-1.004,1.1153 -2.789,1.2269 -3.904,0.223c-0.446,-0.5577 -0.781,-1.2269 -0.781,-1.8961zm4.908,27.104c-1.004,1.1154 -2.677,1.227 -3.904,0.2231c-1.115,-1.0038 -1.227,-2.7885 -0.223,-3.9039c1.004,-1.1154 2.565,-1.2269 3.68,-0.3346c0.112,0 0.112,0.1116 0.112,0.1116c1.227,1.0038 1.338,2.7885 0.335,3.9038zm19.965,-23.9809c-0.112,0.6692 -0.558,1.3384 -1.227,1.7846c-0.558,0.4461 -1.339,0.5577 -2.119,0.4461c-0.67,-0.1115 -1.339,-0.5576 -1.785,-1.2269c-0.446,-0.5577 -0.558,-1.3385 -0.446,-2.1192c0.111,-0.6693 0.446,-1.227 1.004,-1.5616c0.111,0 0.111,-0.1115 0.223,-0.1115c1.227,-0.7808 3.011,-0.4462 3.792,0.7808c0.558,0.5577 0.669,1.2269 0.558,2.0077z"/>
  <path id="svg_345" fill="#ffffff" d="m228.341,119.7739l0,-6.0231l2.342,0c2.119,0 3.792,1.6731 3.792,3.7924l0,16.3963c-2.342,0.7807 -4.015,3.0115 -4.015,5.6885c0,1.6731 0.669,3.1231 1.673,4.2385c1.115,1.1154 2.565,1.7846 4.35,1.7846c3.346,0 6.023,-2.677 6.023,-6.0231c0,-2.4539 -1.562,-4.5732 -3.681,-5.577l0,-16.5078c0,-2.2308 -0.892,-4.2385 -2.454,-5.8001c-1.561,-1.5615 -3.569,-2.4539 -5.8,-2.4539l-2.342,0l0,-6.0231l-8.142,8.1424l8.254,8.3654zm8.253,17.1771c0.781,0 1.45,0.3346 2.008,0.7808c0.446,0.4462 0.781,1.2269 0.781,1.8962c0,0.7807 -0.335,1.45 -0.781,1.8961c-0.558,0.5577 -1.227,0.7808 -1.896,0.7808c-1.562,0 -2.789,-1.2269 -2.789,-2.7885c-0.111,-1.3384 1.116,-2.5654 2.677,-2.5654z"/>
  <path id="svg_346" fill="#ffffff" d="m692.014,259.5126c2.453,-2.2307 2.677,-6.0231 0.446,-8.477c-0.669,-0.6692 -1.339,-1.2269 -2.119,-1.5615l0,-11.4886c4.238,5.4655 9.257,7.8078 13.049,8.9232c0.223,1.0038 0.67,1.8962 1.339,2.6769c1.115,1.227 2.565,1.8962 4.127,2.0077c1.561,0.1116 3.123,-0.4461 4.349,-1.5615c2.454,-2.2308 2.677,-6.0231 0.447,-8.477c-1.116,-1.2269 -2.566,-1.8962 -4.127,-2.0077c-1.45,-0.1116 -2.789,0.3346 -4.016,1.2269c-0.111,0.1116 -0.223,0.2231 -0.334,0.3346c-0.446,0.4462 -0.892,0.8924 -1.115,1.45c-3.347,-1.1153 -7.808,-3.5692 -11.377,-9.0346c2.008,-2.2308 2.119,-5.6886 0,-8.0309c-2.119,-2.3423 -5.688,-2.6769 -8.142,-0.7808c-0.112,0.1116 -0.223,0.2231 -0.335,0.3347c-2.454,2.2307 -2.677,6.0231 -0.446,8.477c0.669,0.7807 1.45,1.2269 2.342,1.5615l0,14.277c-0.557,0.2231 -1.115,0.4462 -1.561,0.8924c-0.112,0.1115 -0.223,0.223 -0.335,0.3346c-1.227,1.1154 -1.896,2.5654 -2.007,4.1269c-0.112,1.5616 0.446,3.1232 1.561,4.3501c2.008,2.3423 5.8,2.5654 8.254,0.4461zm15.392,-16.0616c0.557,-0.4462 1.226,-0.7808 2.007,-0.6693c0.781,0 1.45,0.3346 1.896,0.8923c1.004,1.1154 0.893,2.9001 -0.223,3.9039c0,0 -0.111,0.1116 -0.223,0.1116c-0.557,0.4461 -1.115,0.5577 -1.784,0.5577c-0.781,0 -1.45,-0.3347 -1.896,-0.8924c-0.447,-0.5576 -0.781,-1.2269 -0.67,-2.0077c0,-0.6692 0.335,-1.3384 0.893,-1.8961zm-21.081,-15.9502c1.116,-1.0038 2.9,-0.8923 3.904,0.2231c1.004,1.1154 0.892,2.9 -0.223,3.9039l-0.112,0.1115c-1.115,0.8923 -2.788,0.6693 -3.68,-0.3346c-1.116,-1.2269 -1.004,-2.9 0.111,-3.9039zm-1.003,27.3272c0,-0.7808 0.334,-1.45 0.892,-1.8962c1.115,-1.0038 2.9,-0.8923 3.904,0.2231c1.003,1.1154 0.892,2.9 -0.224,3.9039l-0.111,0.1115c-1.115,0.8923 -2.788,0.6693 -3.681,-0.3346c-0.557,-0.5577 -0.892,-1.3385 -0.78,-2.0077z"/>
  <path stroke="null" id="svg_348" fill="#9c4668" d="m208.883,57.621l-2.119,0l0,38.012l2.119,0l0,-38.012z"/>
  <path stroke="null" id="svg_351" fill="#9c4668" d="m208.883,125.621l-2.119,0l0,38.012l2.119,0l0,-38.012z"/>
 </g>
</svg>